<mxfile host="app.diagrams.net" modified="2023-06-08T16:34:43.147Z" agent="Mozilla/5.0 (Windows NT 10.0; Win64; x64) AppleWebKit/537.36 (KHTML, like Gecko) Chrome/110.0.0.0 Safari/537.36" etag="znRDU98W_lSeLjZDMAP0" version="21.3.7" type="device">
  <diagram id="1XahwP3jG_cc0_hFDbRd" name="Page-1">
    <mxGraphModel dx="2021" dy="734" grid="1" gridSize="10" guides="1" tooltips="1" connect="1" arrows="1" fold="1" page="1" pageScale="1" pageWidth="827" pageHeight="1169" math="0" shadow="0">
      <root>
        <mxCell id="0" />
        <mxCell id="1" parent="0" />
        <mxCell id="GgjrJMBKcp33Ribkp8hx-1" style="vsdxID=197;fillColor=#EBF1DF;gradientColor=none;shape=stencil(nZBLDoAgDERP0z3SIyjew0SURgSD+Lu9kMZoXLhwN9O+tukAlrNpJg1SzDH4QW/URgNYgZTkjA4UkwJUgGXng+6DX1zLfmoymdXo17xh5zmRJ6Q42BWCfc2oJfdAr+Yv+AP9Cb7OJ3H/2JG1HNGz/84klThPVCc=);strokeColor=#000000;labelBackgroundColor=none;rounded=0;html=1;whiteSpace=wrap;" parent="1" vertex="1">
          <mxGeometry x="-130" y="888" width="519" height="53" as="geometry" />
        </mxCell>
        <mxCell id="GgjrJMBKcp33Ribkp8hx-2" style="vsdxID=93;fillColor=#f2dcda;gradientColor=none;shape=stencil(nZBLDoAgDERP0z3SIyjew0SURgSD+Lu9kMZoXLhwN9O+tukAlrNpJg1SzDH4QW/URgNYgZTkjA4UkwJUgGXng+6DX1zLfmoymdXo17xh5zmRJ6Q42BWCfc2oJfdAr+Yv+AP9Cb7OJ3H/2JG1HNGz/84klThPVCc=);strokeColor=#000000;labelBackgroundColor=none;rounded=0;html=1;whiteSpace=wrap;" parent="1" vertex="1">
          <mxGeometry x="-131" y="808" width="520" height="47" as="geometry" />
        </mxCell>
        <mxCell id="GgjrJMBKcp33Ribkp8hx-3" style="vsdxID=247;edgeStyle=none;startArrow=none;endArrow=classic;startSize=5;endSize=5;strokeColor=#923931;spacingTop=0;spacingBottom=0;spacingLeft=0;spacingRight=0;verticalAlign=middle;html=1;labelBackgroundColor=#ffffff;rounded=0;" parent="1" edge="1">
          <mxGeometry relative="1" as="geometry">
            <Array as="points">
              <mxPoint x="129" y="970" />
            </Array>
            <mxPoint x="128" y="944" as="sourcePoint" />
            <mxPoint x="128" y="980" as="targetPoint" />
          </mxGeometry>
        </mxCell>
        <mxCell id="GgjrJMBKcp33Ribkp8hx-4" value="&lt;p style=&quot;margin: 0px ; text-indent: 0px ; direction: ltr ; font-size: 14px&quot;&gt;&lt;/p&gt;&lt;font style=&quot;font-size: 15px&quot;&gt;Z&lt;sub&gt;2&lt;/sub&gt;&lt;br&gt;&lt;/font&gt;" style="verticalAlign=middle;align=center;vsdxID=71;shape=stencil(vVHLDsIgEPwajiQI6RfU+h8bu22JCGRB2/69kG1iazx58DazM/vIjjBtmiCi0CplCjecbZ8nYc5Ca+snJJsLEqYTph0C4Ujh4XvmEaqzont41gkL96naodXKrGF6YSfQtUi0OXXDVlqPfJNP6usotUhYbJIUMmQb/GGrAxpRljVycDBuc1hKM2LclX8/7H9nFfB+82Cd45T2+mcspcSRmu4F);spacingTop=-3;spacingBottom=-1;spacingLeft=-3;spacingRight=-3;labelBackgroundColor=none;rounded=0;html=1;whiteSpace=wrap;" parent="1" vertex="1">
          <mxGeometry x="-2" y="900" width="276" height="34.5" as="geometry" />
        </mxCell>
        <mxCell id="GgjrJMBKcp33Ribkp8hx-5" value="&lt;font style=&quot;font-family: calibri; color: rgb(0, 0, 0); direction: ltr; letter-spacing: 0px; line-height: 120%; opacity: 1;&quot;&gt;&lt;font style=&quot;font-size: 23px;&quot;&gt;Couche d’entrée&lt;/font&gt;&lt;br&gt;&lt;/font&gt;" style="verticalAlign=middle;align=center;vsdxID=192;fillColor=#FFF2CC;gradientColor=none;shape=stencil(nZBLDoAgDERP0z3SIyjew0SURgSD+Lu9kMZoXLhwN9O+tukAlrNpJg1SzDH4QW/URgNYgZTkjA4UkwJUgGXng+6DX1zLfmoymdXo17xh5zmRJ6Q42BWCfc2oJfdAr+Yv+AP9Cb7OJ3H/2JG1HNGz/84klThPVCc=);strokeColor=none;labelBackgroundColor=none;rounded=0;html=1;whiteSpace=wrap;" parent="1" vertex="1">
          <mxGeometry x="416" y="744" width="204" height="34" as="geometry" />
        </mxCell>
        <mxCell id="GgjrJMBKcp33Ribkp8hx-8" style="vsdxID=85;fillColor=#fff2cc;gradientColor=none;shape=stencil(nZBLDoAgDERP0z3SIyjew0SURgSD+Lu9kMZoXLhwN9O+tukAlrNpJg1SzDH4QW/URgNYgZTkjA4UkwJUgGXng+6DX1zLfmoymdXo17xh5zmRJ6Q42BWCfc2oJfdAr+Yv+AP9Cb7OJ3H/2JG1HNGz/84klThPVCc=);strokeColor=#000000;labelBackgroundColor=none;rounded=0;html=1;whiteSpace=wrap;" parent="1" vertex="1">
          <mxGeometry x="-140" y="740" width="65" height="40" as="geometry" />
        </mxCell>
        <mxCell id="GgjrJMBKcp33Ribkp8hx-9" style="vsdxID=102;edgeStyle=none;startArrow=none;endArrow=classic;startSize=5;endSize=5;strokeColor=#923931;spacingTop=0;spacingBottom=0;spacingLeft=0;spacingRight=0;verticalAlign=middle;html=1;labelBackgroundColor=#ffffff;rounded=0;" parent="1" edge="1">
          <mxGeometry relative="1" as="geometry">
            <Array as="points" />
            <mxPoint x="-108" y="780" as="sourcePoint" />
            <mxPoint x="-108" y="808" as="targetPoint" />
          </mxGeometry>
        </mxCell>
        <mxCell id="GgjrJMBKcp33Ribkp8hx-10" value="&lt;span style=&quot;text-align: left&quot;&gt;β&lt;/span&gt;&lt;sub style=&quot;text-align: left&quot;&gt;2&lt;/sub&gt;&lt;sub style=&quot;font-family: &amp;#34;cambria math&amp;#34; ; letter-spacing: 0px&quot;&gt;*&lt;/sub&gt;&lt;span style=&quot;font-family: &amp;#34;cambria math&amp;#34; ; font-size: 15px ; letter-spacing: 0px&quot;&gt;a&lt;/span&gt;&lt;sub style=&quot;font-family: &amp;#34;cambria math&amp;#34; ; letter-spacing: 0px&quot;&gt;1&lt;/sub&gt;&lt;sub style=&quot;font-family: &amp;#34;cambria math&amp;#34;&quot;&gt;&lt;br&gt;&lt;/sub&gt;" style="verticalAlign=middle;align=center;vsdxID=66;fillColor=#FFFFFF;gradientColor=none;shape=stencil(vVHLDsIgEPwajiQI6RfU+h8bu22JCGRB2/69kG1iazx58DazM/vIjjBtmiCi0CplCjecbZ8nYc5Ca+snJJsLEqYTph0C4Ujh4XvmEaqzont41gkL96naodXKrGF6YSfQtUi0OXXDVlqPfJNP6usotUhYbJIUMmQb/GGrAxpRljVycDBuc1hKM2LclX8/7H9nFfB+82Cd45T2+mcspcSRmu4F);spacingTop=-3;spacingBottom=-1;spacingLeft=-3;spacingRight=-3;labelBackgroundColor=none;rounded=0;html=1;whiteSpace=wrap;" parent="1" vertex="1">
          <mxGeometry x="-133" y="748" width="50" height="28" as="geometry" />
        </mxCell>
        <mxCell id="GgjrJMBKcp33Ribkp8hx-11" value="&lt;p style=&quot;margin-left: 0 ; margin-right: 0 ; margin-top: 0px ; margin-bottom: 0px ; text-indent: 0 ; direction: ltr&quot;&gt;&lt;font style=&quot;font-family: &amp;#34;cambria math&amp;#34; ; color: rgb(0 , 0 , 0) ; direction: ltr ; letter-spacing: 0px ; line-height: 120% ; opacity: 1 ; font-size: 15px&quot;&gt;a&lt;sub&gt;1&lt;/sub&gt;&lt;/font&gt;&lt;/p&gt;" style="verticalAlign=middle;align=center;vsdxID=66;fillColor=#FFFFFF;gradientColor=none;shape=stencil(vVHLDsIgEPwajiQI6RfU+h8bu22JCGRB2/69kG1iazx58DazM/vIjjBtmiCi0CplCjecbZ8nYc5Ca+snJJsLEqYTph0C4Ujh4XvmEaqzont41gkL96naodXKrGF6YSfQtUi0OXXDVlqPfJNP6usotUhYbJIUMmQb/GGrAxpRljVycDBuc1hKM2LclX8/7H9nFfB+82Cd45T2+mcspcSRmu4F);spacingTop=-3;spacingBottom=-1;spacingLeft=-3;spacingRight=-3;labelBackgroundColor=none;rounded=0;html=1;whiteSpace=wrap;" parent="1" vertex="1">
          <mxGeometry x="-117" y="699" width="22" height="22" as="geometry" />
        </mxCell>
        <mxCell id="GgjrJMBKcp33Ribkp8hx-12" style="vsdxID=102;edgeStyle=none;startArrow=none;endArrow=classic;startSize=5;endSize=5;strokeColor=#923931;spacingTop=0;spacingBottom=0;spacingLeft=0;spacingRight=0;verticalAlign=middle;html=1;labelBackgroundColor=#ffffff;rounded=0;" parent="1" edge="1">
          <mxGeometry relative="1" as="geometry">
            <Array as="points" />
            <mxPoint x="-109" y="720" as="sourcePoint" />
            <mxPoint x="-109" y="748" as="targetPoint" />
          </mxGeometry>
        </mxCell>
        <mxCell id="GgjrJMBKcp33Ribkp8hx-15" style="vsdxID=85;fillColor=#fff2cc;gradientColor=none;shape=stencil(nZBLDoAgDERP0z3SIyjew0SURgSD+Lu9kMZoXLhwN9O+tukAlrNpJg1SzDH4QW/URgNYgZTkjA4UkwJUgGXng+6DX1zLfmoymdXo17xh5zmRJ6Q42BWCfc2oJfdAr+Yv+AP9Cb7OJ3H/2JG1HNGz/84klThPVCc=);strokeColor=#000000;labelBackgroundColor=none;rounded=0;html=1;whiteSpace=wrap;" parent="1" vertex="1">
          <mxGeometry x="-64" y="740" width="65" height="40" as="geometry" />
        </mxCell>
        <mxCell id="GgjrJMBKcp33Ribkp8hx-16" style="vsdxID=102;edgeStyle=none;startArrow=none;endArrow=classic;startSize=5;endSize=5;strokeColor=#923931;spacingTop=0;spacingBottom=0;spacingLeft=0;spacingRight=0;verticalAlign=middle;html=1;labelBackgroundColor=#ffffff;rounded=0;" parent="1" edge="1">
          <mxGeometry relative="1" as="geometry">
            <Array as="points" />
            <mxPoint x="-32" y="780" as="sourcePoint" />
            <mxPoint x="-32" y="808" as="targetPoint" />
          </mxGeometry>
        </mxCell>
        <mxCell id="GgjrJMBKcp33Ribkp8hx-17" value="&lt;span style=&quot;text-align: left&quot;&gt;γ&lt;/span&gt;&lt;sub style=&quot;text-align: left&quot;&gt;2&lt;/sub&gt;&lt;sub style=&quot;font-family: &amp;#34;cambria math&amp;#34; ; letter-spacing: 0px&quot;&gt;*&lt;/sub&gt;&lt;span style=&quot;font-family: &amp;#34;cambria math&amp;#34; ; font-size: 15px ; letter-spacing: 0px&quot;&gt;a&lt;/span&gt;&lt;sub style=&quot;font-family: &amp;#34;cambria math&amp;#34; ; letter-spacing: 0px&quot;&gt;2&lt;/sub&gt;&lt;sub style=&quot;font-family: &amp;#34;cambria math&amp;#34;&quot;&gt;&lt;br&gt;&lt;/sub&gt;" style="verticalAlign=middle;align=center;vsdxID=66;fillColor=#FFFFFF;gradientColor=none;shape=stencil(vVHLDsIgEPwajiQI6RfU+h8bu22JCGRB2/69kG1iazx58DazM/vIjjBtmiCi0CplCjecbZ8nYc5Ca+snJJsLEqYTph0C4Ujh4XvmEaqzont41gkL96naodXKrGF6YSfQtUi0OXXDVlqPfJNP6usotUhYbJIUMmQb/GGrAxpRljVycDBuc1hKM2LclX8/7H9nFfB+82Cd45T2+mcspcSRmu4F);spacingTop=-3;spacingBottom=-1;spacingLeft=-3;spacingRight=-3;labelBackgroundColor=none;rounded=0;html=1;whiteSpace=wrap;" parent="1" vertex="1">
          <mxGeometry x="-57" y="748" width="50" height="28" as="geometry" />
        </mxCell>
        <mxCell id="GgjrJMBKcp33Ribkp8hx-18" value="&lt;p style=&quot;margin-left: 0 ; margin-right: 0 ; margin-top: 0px ; margin-bottom: 0px ; text-indent: 0 ; direction: ltr&quot;&gt;&lt;font style=&quot;font-size: 15px ; font-family: &amp;#34;cambria math&amp;#34; ; color: #000000 ; direction: ltr ; letter-spacing: 0px ; line-height: 120% ; opacity: 1&quot;&gt;a&lt;sub&gt;2&lt;/sub&gt;&lt;/font&gt;&lt;/p&gt;" style="verticalAlign=middle;align=center;vsdxID=66;fillColor=#FFFFFF;gradientColor=none;shape=stencil(vVHLDsIgEPwajiQI6RfU+h8bu22JCGRB2/69kG1iazx58DazM/vIjjBtmiCi0CplCjecbZ8nYc5Ca+snJJsLEqYTph0C4Ujh4XvmEaqzont41gkL96naodXKrGF6YSfQtUi0OXXDVlqPfJNP6usotUhYbJIUMmQb/GGrAxpRljVycDBuc1hKM2LclX8/7H9nFfB+82Cd45T2+mcspcSRmu4F);spacingTop=-3;spacingBottom=-1;spacingLeft=-3;spacingRight=-3;labelBackgroundColor=none;rounded=0;html=1;whiteSpace=wrap;" parent="1" vertex="1">
          <mxGeometry x="-44" y="699" width="22" height="22" as="geometry" />
        </mxCell>
        <mxCell id="GgjrJMBKcp33Ribkp8hx-19" style="vsdxID=102;edgeStyle=none;startArrow=none;endArrow=classic;startSize=5;endSize=5;strokeColor=#923931;spacingTop=0;spacingBottom=0;spacingLeft=0;spacingRight=0;verticalAlign=middle;html=1;labelBackgroundColor=#ffffff;rounded=0;" parent="1" edge="1">
          <mxGeometry relative="1" as="geometry">
            <Array as="points" />
            <mxPoint x="-33" y="720" as="sourcePoint" />
            <mxPoint x="-33" y="748" as="targetPoint" />
          </mxGeometry>
        </mxCell>
        <mxCell id="GgjrJMBKcp33Ribkp8hx-21" style="vsdxID=85;fillColor=#fff2cc;gradientColor=none;shape=stencil(nZBLDoAgDERP0z3SIyjew0SURgSD+Lu9kMZoXLhwN9O+tukAlrNpJg1SzDH4QW/URgNYgZTkjA4UkwJUgGXng+6DX1zLfmoymdXo17xh5zmRJ6Q42BWCfc2oJfdAr+Yv+AP9Cb7OJ3H/2JG1HNGz/84klThPVCc=);strokeColor=#000000;labelBackgroundColor=none;rounded=0;html=1;whiteSpace=wrap;" parent="1" vertex="1">
          <mxGeometry x="12" y="740" width="65" height="40" as="geometry" />
        </mxCell>
        <mxCell id="GgjrJMBKcp33Ribkp8hx-22" style="vsdxID=102;edgeStyle=none;startArrow=none;endArrow=classic;startSize=5;endSize=5;strokeColor=#923931;spacingTop=0;spacingBottom=0;spacingLeft=0;spacingRight=0;verticalAlign=middle;html=1;labelBackgroundColor=#ffffff;rounded=0;" parent="1" edge="1">
          <mxGeometry relative="1" as="geometry">
            <Array as="points" />
            <mxPoint x="44" y="780" as="sourcePoint" />
            <mxPoint x="44" y="808" as="targetPoint" />
          </mxGeometry>
        </mxCell>
        <mxCell id="GgjrJMBKcp33Ribkp8hx-23" value="&lt;span style=&quot;text-align: left&quot;&gt;λ&lt;/span&gt;&lt;sub style=&quot;text-align: left&quot;&gt;2&lt;/sub&gt;&lt;sub style=&quot;font-family: &amp;#34;cambria math&amp;#34; ; letter-spacing: 0px&quot;&gt;*&lt;/sub&gt;&lt;span style=&quot;font-family: &amp;#34;cambria math&amp;#34; ; font-size: 15px ; letter-spacing: 0px&quot;&gt;a&lt;/span&gt;&lt;sub style=&quot;font-family: &amp;#34;cambria math&amp;#34; ; letter-spacing: 0px&quot;&gt;3&lt;/sub&gt;&lt;sub style=&quot;font-family: &amp;#34;cambria math&amp;#34;&quot;&gt;&lt;br&gt;&lt;/sub&gt;" style="verticalAlign=middle;align=center;vsdxID=66;fillColor=#FFFFFF;gradientColor=none;shape=stencil(vVHLDsIgEPwajiQI6RfU+h8bu22JCGRB2/69kG1iazx58DazM/vIjjBtmiCi0CplCjecbZ8nYc5Ca+snJJsLEqYTph0C4Ujh4XvmEaqzont41gkL96naodXKrGF6YSfQtUi0OXXDVlqPfJNP6usotUhYbJIUMmQb/GGrAxpRljVycDBuc1hKM2LclX8/7H9nFfB+82Cd45T2+mcspcSRmu4F);spacingTop=-3;spacingBottom=-1;spacingLeft=-3;spacingRight=-3;labelBackgroundColor=none;rounded=0;html=1;whiteSpace=wrap;" parent="1" vertex="1">
          <mxGeometry x="19" y="748" width="50" height="28" as="geometry" />
        </mxCell>
        <mxCell id="GgjrJMBKcp33Ribkp8hx-24" value="&lt;p style=&quot;margin-left: 0 ; margin-right: 0 ; margin-top: 0px ; margin-bottom: 0px ; text-indent: 0 ; direction: ltr&quot;&gt;&lt;font style=&quot;font-size: 15px ; font-family: &amp;#34;cambria math&amp;#34; ; color: #000000 ; direction: ltr ; letter-spacing: 0px ; line-height: 120% ; opacity: 1&quot;&gt;a&lt;sub&gt;3&lt;/sub&gt;&lt;/font&gt;&lt;/p&gt;" style="verticalAlign=middle;align=center;vsdxID=66;fillColor=#FFFFFF;gradientColor=none;shape=stencil(vVHLDsIgEPwajiQI6RfU+h8bu22JCGRB2/69kG1iazx58DazM/vIjjBtmiCi0CplCjecbZ8nYc5Ca+snJJsLEqYTph0C4Ujh4XvmEaqzont41gkL96naodXKrGF6YSfQtUi0OXXDVlqPfJNP6usotUhYbJIUMmQb/GGrAxpRljVycDBuc1hKM2LclX8/7H9nFfB+82Cd45T2+mcspcSRmu4F);spacingTop=-3;spacingBottom=-1;spacingLeft=-3;spacingRight=-3;labelBackgroundColor=none;rounded=0;html=1;whiteSpace=wrap;" parent="1" vertex="1">
          <mxGeometry x="32" y="699" width="22" height="22" as="geometry" />
        </mxCell>
        <mxCell id="GgjrJMBKcp33Ribkp8hx-25" style="vsdxID=102;edgeStyle=none;startArrow=none;endArrow=classic;startSize=5;endSize=5;strokeColor=#923931;spacingTop=0;spacingBottom=0;spacingLeft=0;spacingRight=0;verticalAlign=middle;html=1;labelBackgroundColor=#ffffff;rounded=0;" parent="1" edge="1">
          <mxGeometry relative="1" as="geometry">
            <Array as="points" />
            <mxPoint x="43" y="720" as="sourcePoint" />
            <mxPoint x="43" y="748" as="targetPoint" />
          </mxGeometry>
        </mxCell>
        <mxCell id="GgjrJMBKcp33Ribkp8hx-27" style="vsdxID=85;fillColor=#fff2cc;gradientColor=none;shape=stencil(nZBLDoAgDERP0z3SIyjew0SURgSD+Lu9kMZoXLhwN9O+tukAlrNpJg1SzDH4QW/URgNYgZTkjA4UkwJUgGXng+6DX1zLfmoymdXo17xh5zmRJ6Q42BWCfc2oJfdAr+Yv+AP9Cb7OJ3H/2JG1HNGz/84klThPVCc=);strokeColor=#000000;labelBackgroundColor=none;rounded=0;html=1;whiteSpace=wrap;" parent="1" vertex="1">
          <mxGeometry x="88" y="739" width="65" height="40" as="geometry" />
        </mxCell>
        <mxCell id="GgjrJMBKcp33Ribkp8hx-28" style="vsdxID=102;edgeStyle=none;startArrow=none;endArrow=classic;startSize=5;endSize=5;strokeColor=#923931;spacingTop=0;spacingBottom=0;spacingLeft=0;spacingRight=0;verticalAlign=middle;html=1;labelBackgroundColor=#ffffff;rounded=0;" parent="1" edge="1">
          <mxGeometry relative="1" as="geometry">
            <Array as="points" />
            <mxPoint x="120" y="779" as="sourcePoint" />
            <mxPoint x="120" y="807" as="targetPoint" />
          </mxGeometry>
        </mxCell>
        <mxCell id="GgjrJMBKcp33Ribkp8hx-29" value="&lt;span style=&quot;text-align: left&quot;&gt;σ&lt;/span&gt;&lt;sub style=&quot;text-align: left&quot;&gt;2&lt;/sub&gt;&lt;sub style=&quot;font-family: &amp;#34;cambria math&amp;#34; ; letter-spacing: 0px&quot;&gt;*&lt;/sub&gt;&lt;span style=&quot;font-family: &amp;#34;cambria math&amp;#34; ; font-size: 15px ; letter-spacing: 0px&quot;&gt;a&lt;/span&gt;&lt;sub style=&quot;font-family: &amp;#34;cambria math&amp;#34; ; letter-spacing: 0px&quot;&gt;4&lt;/sub&gt;&lt;sub style=&quot;font-family: &amp;#34;cambria math&amp;#34;&quot;&gt;&lt;br&gt;&lt;/sub&gt;" style="verticalAlign=middle;align=center;vsdxID=66;fillColor=#FFFFFF;gradientColor=none;shape=stencil(vVHLDsIgEPwajiQI6RfU+h8bu22JCGRB2/69kG1iazx58DazM/vIjjBtmiCi0CplCjecbZ8nYc5Ca+snJJsLEqYTph0C4Ujh4XvmEaqzont41gkL96naodXKrGF6YSfQtUi0OXXDVlqPfJNP6usotUhYbJIUMmQb/GGrAxpRljVycDBuc1hKM2LclX8/7H9nFfB+82Cd45T2+mcspcSRmu4F);spacingTop=-3;spacingBottom=-1;spacingLeft=-3;spacingRight=-3;labelBackgroundColor=none;rounded=0;html=1;whiteSpace=wrap;" parent="1" vertex="1">
          <mxGeometry x="95" y="747" width="50" height="28" as="geometry" />
        </mxCell>
        <mxCell id="GgjrJMBKcp33Ribkp8hx-30" value="&lt;p style=&quot;margin-left: 0 ; margin-right: 0 ; margin-top: 0px ; margin-bottom: 0px ; text-indent: 0 ; direction: ltr&quot;&gt;&lt;font style=&quot;font-size: 15px ; font-family: &amp;#34;cambria math&amp;#34; ; color: #000000 ; direction: ltr ; letter-spacing: 0px ; line-height: 120% ; opacity: 1&quot;&gt;a&lt;sub&gt;4&lt;/sub&gt;&lt;/font&gt;&lt;/p&gt;" style="verticalAlign=middle;align=center;vsdxID=66;fillColor=#FFFFFF;gradientColor=none;shape=stencil(vVHLDsIgEPwajiQI6RfU+h8bu22JCGRB2/69kG1iazx58DazM/vIjjBtmiCi0CplCjecbZ8nYc5Ca+snJJsLEqYTph0C4Ujh4XvmEaqzont41gkL96naodXKrGF6YSfQtUi0OXXDVlqPfJNP6usotUhYbJIUMmQb/GGrAxpRljVycDBuc1hKM2LclX8/7H9nFfB+82Cd45T2+mcspcSRmu4F);spacingTop=-3;spacingBottom=-1;spacingLeft=-3;spacingRight=-3;labelBackgroundColor=none;rounded=0;html=1;whiteSpace=wrap;" parent="1" vertex="1">
          <mxGeometry x="108" y="698" width="22" height="22" as="geometry" />
        </mxCell>
        <mxCell id="GgjrJMBKcp33Ribkp8hx-31" style="vsdxID=102;edgeStyle=none;startArrow=none;endArrow=classic;startSize=5;endSize=5;strokeColor=#923931;spacingTop=0;spacingBottom=0;spacingLeft=0;spacingRight=0;verticalAlign=middle;html=1;labelBackgroundColor=#ffffff;rounded=0;" parent="1" edge="1">
          <mxGeometry relative="1" as="geometry">
            <Array as="points" />
            <mxPoint x="119" y="719" as="sourcePoint" />
            <mxPoint x="119" y="747" as="targetPoint" />
          </mxGeometry>
        </mxCell>
        <mxCell id="GgjrJMBKcp33Ribkp8hx-33" value="&lt;p style=&quot;margin-left: 0 ; margin-right: 0 ; margin-top: 0px ; margin-bottom: 0px ; text-indent: 0 ; direction: ltr&quot;&gt;&lt;font style=&quot;font-size: 15px ; font-family: &amp;#34;cambria math&amp;#34; ; color: #000000 ; direction: ltr ; letter-spacing: 0px ; line-height: 120% ; opacity: 1&quot;&gt;a&lt;/font&gt;&lt;font style=&quot;font-family: &amp;#34;cambria math&amp;#34; ; color: rgb(0 , 0 , 0) ; direction: ltr ; letter-spacing: 0px ; line-height: 120% ; opacity: 1 ; font-size: 10.4167px&quot;&gt;&lt;sub&gt;9&lt;/sub&gt;&lt;/font&gt;&lt;/p&gt;" style="verticalAlign=middle;align=center;vsdxID=66;fillColor=#FFFFFF;gradientColor=none;shape=stencil(vVHLDsIgEPwajiQI6RfU+h8bu22JCGRB2/69kG1iazx58DazM/vIjjBtmiCi0CplCjecbZ8nYc5Ca+snJJsLEqYTph0C4Ujh4XvmEaqzont41gkL96naodXKrGF6YSfQtUi0OXXDVlqPfJNP6usotUhYbJIUMmQb/GGrAxpRljVycDBuc1hKM2LclX8/7H9nFfB+82Cd45T2+mcspcSRmu4F);spacingTop=-3;spacingBottom=-1;spacingLeft=-3;spacingRight=-3;labelBackgroundColor=none;rounded=0;html=1;whiteSpace=wrap;" parent="1" vertex="1">
          <mxGeometry x="386" y="697" width="22" height="22" as="geometry" />
        </mxCell>
        <mxCell id="GgjrJMBKcp33Ribkp8hx-34" style="vsdxID=102;edgeStyle=none;startArrow=none;endArrow=classic;startSize=5;endSize=5;strokeColor=#923931;spacingTop=0;spacingBottom=0;spacingLeft=0;spacingRight=0;verticalAlign=middle;html=1;labelBackgroundColor=#ffffff;rounded=0;entryX=0.9;entryY=0.025;entryDx=0;entryDy=0;entryPerimeter=0;" parent="1" edge="1">
          <mxGeometry relative="1" as="geometry">
            <Array as="points" />
            <mxPoint x="397" y="718" as="sourcePoint" />
            <mxPoint x="397" y="1062" as="targetPoint" />
          </mxGeometry>
        </mxCell>
        <mxCell id="GgjrJMBKcp33Ribkp8hx-36" value="&lt;font style=&quot;font-size: 15px&quot;&gt;&lt;br&gt;&lt;/font&gt;" style="text;html=1;align=center;verticalAlign=middle;resizable=0;points=[];autosize=1;strokeColor=none;" parent="1" vertex="1">
          <mxGeometry x="-4" y="1162" width="20" height="20" as="geometry" />
        </mxCell>
        <mxCell id="GgjrJMBKcp33Ribkp8hx-37" value="&lt;font face=&quot;cambria math&quot;&gt;&lt;span style=&quot;font-size: 15px&quot;&gt;-1&lt;/span&gt;&lt;/font&gt;" style="text;html=1;align=center;verticalAlign=middle;resizable=0;points=[];autosize=1;strokeColor=none;" parent="1" vertex="1">
          <mxGeometry x="-135" y="859" width="30" height="20" as="geometry" />
        </mxCell>
        <mxCell id="GgjrJMBKcp33Ribkp8hx-38" value="&lt;font face=&quot;cambria math&quot;&gt;&lt;span style=&quot;font-size: 15px&quot;&gt;-1&lt;/span&gt;&lt;/font&gt;" style="text;html=1;align=center;verticalAlign=middle;resizable=0;points=[];autosize=1;strokeColor=none;" parent="1" vertex="1">
          <mxGeometry x="-62" y="856" width="30" height="20" as="geometry" />
        </mxCell>
        <mxCell id="GgjrJMBKcp33Ribkp8hx-39" value="&lt;span style=&quot;font-family: &amp;#34;cambria math&amp;#34; ; font-size: 15px&quot;&gt;1&lt;/span&gt;" style="text;html=1;align=center;verticalAlign=middle;resizable=0;points=[];autosize=1;strokeColor=none;" parent="1" vertex="1">
          <mxGeometry x="19" y="856" width="20" height="20" as="geometry" />
        </mxCell>
        <mxCell id="GgjrJMBKcp33Ribkp8hx-40" style="vsdxID=102;edgeStyle=none;startArrow=none;endArrow=classic;startSize=5;endSize=5;strokeColor=#923931;spacingTop=0;spacingBottom=0;spacingLeft=0;spacingRight=0;verticalAlign=middle;html=1;labelBackgroundColor=#ffffff;rounded=0;" parent="1" edge="1">
          <mxGeometry relative="1" as="geometry">
            <Array as="points" />
            <mxPoint x="121" y="858" as="sourcePoint" />
            <mxPoint x="121" y="886" as="targetPoint" />
          </mxGeometry>
        </mxCell>
        <mxCell id="GgjrJMBKcp33Ribkp8hx-41" value="&lt;font face=&quot;cambria math&quot;&gt;&lt;span style=&quot;font-size: 15px&quot;&gt;-1&lt;/span&gt;&lt;/font&gt;" style="text;html=1;align=center;verticalAlign=middle;resizable=0;points=[];autosize=1;strokeColor=none;" parent="1" vertex="1">
          <mxGeometry x="90" y="858" width="30" height="20" as="geometry" />
        </mxCell>
        <mxCell id="GgjrJMBKcp33Ribkp8hx-42" style="vsdxID=102;edgeStyle=none;startArrow=none;endArrow=classic;startSize=5;endSize=5;strokeColor=#923931;spacingTop=0;spacingBottom=0;spacingLeft=0;spacingRight=0;verticalAlign=middle;html=1;labelBackgroundColor=#ffffff;rounded=0;" parent="1" edge="1">
          <mxGeometry relative="1" as="geometry">
            <Array as="points" />
            <mxPoint x="40" y="857" as="sourcePoint" />
            <mxPoint x="40" y="885" as="targetPoint" />
          </mxGeometry>
        </mxCell>
        <mxCell id="GgjrJMBKcp33Ribkp8hx-43" style="vsdxID=102;edgeStyle=none;startArrow=none;endArrow=classic;startSize=5;endSize=5;strokeColor=#923931;spacingTop=0;spacingBottom=0;spacingLeft=0;spacingRight=0;verticalAlign=middle;html=1;labelBackgroundColor=#ffffff;rounded=0;" parent="1" edge="1">
          <mxGeometry relative="1" as="geometry">
            <Array as="points" />
            <mxPoint x="-35" y="857" as="sourcePoint" />
            <mxPoint x="-35" y="885" as="targetPoint" />
          </mxGeometry>
        </mxCell>
        <mxCell id="GgjrJMBKcp33Ribkp8hx-44" style="vsdxID=102;edgeStyle=none;startArrow=none;endArrow=classic;startSize=5;endSize=5;strokeColor=#923931;spacingTop=0;spacingBottom=0;spacingLeft=0;spacingRight=0;verticalAlign=middle;html=1;labelBackgroundColor=#ffffff;rounded=0;" parent="1" edge="1">
          <mxGeometry relative="1" as="geometry">
            <Array as="points" />
            <mxPoint x="-108" y="858" as="sourcePoint" />
            <mxPoint x="-108" y="886" as="targetPoint" />
          </mxGeometry>
        </mxCell>
        <mxCell id="GgjrJMBKcp33Ribkp8hx-46" style="vsdxID=197;fillColor=#EBF1DF;gradientColor=none;shape=stencil(nZBLDoAgDERP0z3SIyjew0SURgSD+Lu9kMZoXLhwN9O+tukAlrNpJg1SzDH4QW/URgNYgZTkjA4UkwJUgGXng+6DX1zLfmoymdXo17xh5zmRJ6Q42BWCfc2oJfdAr+Yv+AP9Cb7OJ3H/2JG1HNGz/84klThPVCc=);strokeColor=#000000;labelBackgroundColor=none;rounded=0;html=1;whiteSpace=wrap;" parent="1" vertex="1">
          <mxGeometry x="111" y="982" width="59" height="38" as="geometry" />
        </mxCell>
        <mxCell id="GgjrJMBKcp33Ribkp8hx-48" style="vsdxID=247;edgeStyle=none;startArrow=none;endArrow=classic;startSize=5;endSize=5;strokeColor=#923931;spacingTop=0;spacingBottom=0;spacingLeft=0;spacingRight=0;verticalAlign=middle;html=1;labelBackgroundColor=#ffffff;rounded=0;" parent="1" edge="1">
          <mxGeometry relative="1" as="geometry">
            <Array as="points" />
            <mxPoint x="138" y="1022" as="sourcePoint" />
            <mxPoint x="138" y="1058" as="targetPoint" />
          </mxGeometry>
        </mxCell>
        <mxCell id="GgjrJMBKcp33Ribkp8hx-49" style="vsdxID=197;fillColor=#e1d5e7;shape=stencil(nZBLDoAgDERP0z3SIyjew0SURgSD+Lu9kMZoXLhwN9O+tukAlrNpJg1SzDH4QW/URgNYgZTkjA4UkwJUgGXng+6DX1zLfmoymdXo17xh5zmRJ6Q42BWCfc2oJfdAr+Yv+AP9Cb7OJ3H/2JG1HNGz/84klThPVCc=);strokeColor=#9673a6;labelBackgroundColor=none;rounded=0;html=1;whiteSpace=wrap;" parent="1" vertex="1">
          <mxGeometry x="129" y="1061" width="280" height="40" as="geometry" />
        </mxCell>
        <mxCell id="GgjrJMBKcp33Ribkp8hx-51" style="vsdxID=247;edgeStyle=none;startArrow=none;endArrow=classic;startSize=5;endSize=5;strokeColor=#923931;spacingTop=0;spacingBottom=0;spacingLeft=0;spacingRight=0;verticalAlign=middle;html=1;labelBackgroundColor=#ffffff;rounded=0;" parent="1" edge="1">
          <mxGeometry relative="1" as="geometry">
            <Array as="points" />
            <mxPoint x="268" y="1102" as="sourcePoint" />
            <mxPoint x="268" y="1138" as="targetPoint" />
          </mxGeometry>
        </mxCell>
        <mxCell id="GgjrJMBKcp33Ribkp8hx-52" value="&lt;p style=&quot;margin-left: 0 ; margin-right: 0 ; margin-top: 0px ; margin-bottom: 0px ; text-indent: 0 ; direction: ltr&quot;&gt;&lt;br&gt;&lt;/p&gt;" style="verticalAlign=middle;align=center;vsdxID=66;fillColor=#FFFFFF;gradientColor=none;shape=stencil(vVHLDsIgEPwajiQI6RfU+h8bu22JCGRB2/69kG1iazx58DazM/vIjjBtmiCi0CplCjecbZ8nYc5Ca+snJJsLEqYTph0C4Ujh4XvmEaqzont41gkL96naodXKrGF6YSfQtUi0OXXDVlqPfJNP6usotUhYbJIUMmQb/GGrAxpRljVycDBuc1hKM2LclX8/7H9nFfB+82Cd45T2+mcspcSRmu4F);spacingTop=-3;spacingBottom=-1;spacingLeft=-3;spacingRight=-3;labelBackgroundColor=none;rounded=0;html=1;whiteSpace=wrap;" parent="1" vertex="1">
          <mxGeometry x="118" y="990" width="42" height="22" as="geometry" />
        </mxCell>
        <mxCell id="GgjrJMBKcp33Ribkp8hx-53" value="&lt;p style=&quot;margin-left: 0 ; margin-right: 0 ; margin-top: 0px ; margin-bottom: 0px ; text-indent: 0 ; direction: ltr&quot;&gt;&lt;/p&gt;&lt;p style=&quot;margin: 0px ; direction: ltr&quot;&gt;&lt;span style=&quot;font-family: &amp;#34;calibri&amp;#34; , sans-serif ; font-size: 14.6667px ; text-align: left&quot;&gt;α&lt;/span&gt;&lt;sub style=&quot;font-family: &amp;#34;calibri&amp;#34; , sans-serif ; text-align: left&quot;&gt;2&lt;/sub&gt;&lt;br&gt;&lt;/p&gt;&lt;font face=&quot;cambria math&quot;&gt;&lt;/font&gt;" style="verticalAlign=middle;align=center;vsdxID=66;fillColor=#FFFFFF;gradientColor=none;shape=stencil(vVHLDsIgEPwajiQI6RfU+h8bu22JCGRB2/69kG1iazx58DazM/vIjjBtmiCi0CplCjecbZ8nYc5Ca+snJJsLEqYTph0C4Ujh4XvmEaqzont41gkL96naodXKrGF6YSfQtUi0OXXDVlqPfJNP6usotUhYbJIUMmQb/GGrAxpRljVycDBuc1hKM2LclX8/7H9nFfB+82Cd45T2+mcspcSRmu4F);spacingTop=-3;spacingBottom=-1;spacingLeft=-3;spacingRight=-3;labelBackgroundColor=none;rounded=0;html=1;whiteSpace=wrap;" parent="1" vertex="1">
          <mxGeometry x="168" y="1065" width="78" height="30" as="geometry" />
        </mxCell>
        <mxCell id="GgjrJMBKcp33Ribkp8hx-54" value="&lt;p style=&quot;margin-left: 0 ; margin-right: 0 ; margin-top: 0px ; margin-bottom: 0px ; text-indent: 0 ; direction: ltr&quot;&gt;&lt;font style=&quot;letter-spacing: 0px ; font-size: 15px ; font-family: &amp;#34;cambria math&amp;#34; ; direction: ltr ; line-height: 18px ; opacity: 1&quot;&gt;a&lt;/font&gt;&lt;font style=&quot;letter-spacing: 0px ; font-family: &amp;#34;cambria math&amp;#34; ; direction: ltr ; line-height: 12.5px ; opacity: 1 ; font-size: 10.4167px&quot;&gt;&lt;sub&gt;9&lt;/sub&gt;&lt;/font&gt;&lt;br&gt;&lt;/p&gt;" style="verticalAlign=middle;align=center;vsdxID=66;fillColor=#FFFFFF;gradientColor=none;shape=stencil(vVHLDsIgEPwajiQI6RfU+h8bu22JCGRB2/69kG1iazx58DazM/vIjjBtmiCi0CplCjecbZ8nYc5Ca+snJJsLEqYTph0C4Ujh4XvmEaqzont41gkL96naodXKrGF6YSfQtUi0OXXDVlqPfJNP6usotUhYbJIUMmQb/GGrAxpRljVycDBuc1hKM2LclX8/7H9nFfB+82Cd45T2+mcspcSRmu4F);spacingTop=-3;spacingBottom=-1;spacingLeft=-3;spacingRight=-3;labelBackgroundColor=none;rounded=0;html=1;whiteSpace=wrap;" parent="1" vertex="1">
          <mxGeometry x="293" y="1064" width="72" height="32" as="geometry" />
        </mxCell>
        <mxCell id="GgjrJMBKcp33Ribkp8hx-55" value="&lt;font style=&quot;font-family: calibri; color: rgb(0, 0, 0); direction: ltr; letter-spacing: 0px; line-height: 120%; opacity: 1;&quot;&gt;&lt;font style=&quot;font-size: 23px;&quot;&gt;Entrées&lt;/font&gt;&lt;br&gt;&lt;/font&gt;" style="verticalAlign=middle;align=center;vsdxID=192;fillColor=#fff2cc;gradientColor=none;shape=stencil(nZBLDoAgDERP0z3SIyjew0SURgSD+Lu9kMZoXLhwN9O+tukAlrNpJg1SzDH4QW/URgNYgZTkjA4UkwJUgGXng+6DX1zLfmoymdXo17xh5zmRJ6Q42BWCfc2oJfdAr+Yv+AP9Cb7OJ3H/2JG1HNGz/84klThPVCc=);strokeColor=none;labelBackgroundColor=none;rounded=0;html=1;whiteSpace=wrap;" parent="1" vertex="1">
          <mxGeometry x="415" y="692" width="204" height="34" as="geometry" />
        </mxCell>
        <mxCell id="GgjrJMBKcp33Ribkp8hx-60" value="z&lt;sub&gt;2&lt;/sub&gt;" style="text;html=1;align=center;verticalAlign=middle;resizable=0;points=[];autosize=1;strokeColor=none;fillColor=none;fontSize=12;" parent="1" vertex="1">
          <mxGeometry x="105" y="950" width="30" height="20" as="geometry" />
        </mxCell>
        <mxCell id="GgjrJMBKcp33Ribkp8hx-65" value="&lt;span style=&quot;font-size: 11.0pt ; line-height: 107% ; font-family: &amp;#34;calibri&amp;#34; , sans-serif&quot;&gt;α&lt;sub&gt;2&lt;/sub&gt;&lt;/span&gt;" style="text;whiteSpace=wrap;html=1;" parent="1" vertex="1">
          <mxGeometry x="133" y="986" width="30" height="30" as="geometry" />
        </mxCell>
        <mxCell id="GgjrJMBKcp33Ribkp8hx-68" value="&lt;p class=&quot;MsoNormal&quot;&gt;&lt;br&gt;&lt;/p&gt;" style="text;whiteSpace=wrap;html=1;" parent="1" vertex="1">
          <mxGeometry x="415" y="1139" width="60" height="50" as="geometry" />
        </mxCell>
        <mxCell id="GgjrJMBKcp33Ribkp8hx-69" style="vsdxID=85;fillColor=#fff2cc;gradientColor=none;shape=stencil(nZBLDoAgDERP0z3SIyjew0SURgSD+Lu9kMZoXLhwN9O+tukAlrNpJg1SzDH4QW/URgNYgZTkjA4UkwJUgGXng+6DX1zLfmoymdXo17xh5zmRJ6Q42BWCfc2oJfdAr+Yv+AP9Cb7OJ3H/2JG1HNGz/84klThPVCc=);strokeColor=#000000;labelBackgroundColor=none;rounded=0;html=1;whiteSpace=wrap;" parent="1" vertex="1">
          <mxGeometry x="166" y="739" width="65" height="40" as="geometry" />
        </mxCell>
        <mxCell id="GgjrJMBKcp33Ribkp8hx-70" style="vsdxID=102;edgeStyle=none;startArrow=none;endArrow=classic;startSize=5;endSize=5;strokeColor=#923931;spacingTop=0;spacingBottom=0;spacingLeft=0;spacingRight=0;verticalAlign=middle;html=1;labelBackgroundColor=#ffffff;rounded=0;" parent="1" edge="1">
          <mxGeometry relative="1" as="geometry">
            <Array as="points" />
            <mxPoint x="198" y="779" as="sourcePoint" />
            <mxPoint x="198" y="807" as="targetPoint" />
          </mxGeometry>
        </mxCell>
        <mxCell id="GgjrJMBKcp33Ribkp8hx-71" value="&lt;span style=&quot;font-family: &amp;#34;calibri&amp;#34; , sans-serif ; font-size: 14.6667px ; text-align: left&quot;&gt;π&lt;/span&gt;&lt;sub style=&quot;font-family: &amp;#34;calibri&amp;#34; , sans-serif ; text-align: left&quot;&gt;2&lt;/sub&gt;&lt;sub style=&quot;font-family: &amp;#34;cambria math&amp;#34; ; letter-spacing: 0px&quot;&gt;*&lt;/sub&gt;&lt;span style=&quot;font-family: &amp;#34;cambria math&amp;#34; ; font-size: 15px ; letter-spacing: 0px&quot;&gt;a&lt;/span&gt;&lt;sub style=&quot;font-family: &amp;#34;cambria math&amp;#34; ; letter-spacing: 0px&quot;&gt;5&lt;/sub&gt;&lt;sub style=&quot;font-family: &amp;#34;cambria math&amp;#34;&quot;&gt;&lt;br&gt;&lt;/sub&gt;" style="verticalAlign=middle;align=center;vsdxID=66;fillColor=#FFFFFF;gradientColor=none;shape=stencil(vVHLDsIgEPwajiQI6RfU+h8bu22JCGRB2/69kG1iazx58DazM/vIjjBtmiCi0CplCjecbZ8nYc5Ca+snJJsLEqYTph0C4Ujh4XvmEaqzont41gkL96naodXKrGF6YSfQtUi0OXXDVlqPfJNP6usotUhYbJIUMmQb/GGrAxpRljVycDBuc1hKM2LclX8/7H9nFfB+82Cd45T2+mcspcSRmu4F);spacingTop=-3;spacingBottom=-1;spacingLeft=-3;spacingRight=-3;labelBackgroundColor=none;rounded=0;html=1;whiteSpace=wrap;" parent="1" vertex="1">
          <mxGeometry x="173" y="747" width="50" height="28" as="geometry" />
        </mxCell>
        <mxCell id="GgjrJMBKcp33Ribkp8hx-72" value="&lt;p style=&quot;margin-left: 0 ; margin-right: 0 ; margin-top: 0px ; margin-bottom: 0px ; text-indent: 0 ; direction: ltr&quot;&gt;&lt;font style=&quot;font-size: 15px ; font-family: &amp;#34;cambria math&amp;#34; ; color: #000000 ; direction: ltr ; letter-spacing: 0px ; line-height: 120% ; opacity: 1&quot;&gt;a&lt;sub&gt;5&lt;/sub&gt;&lt;/font&gt;&lt;/p&gt;" style="verticalAlign=middle;align=center;vsdxID=66;fillColor=#FFFFFF;gradientColor=none;shape=stencil(vVHLDsIgEPwajiQI6RfU+h8bu22JCGRB2/69kG1iazx58DazM/vIjjBtmiCi0CplCjecbZ8nYc5Ca+snJJsLEqYTph0C4Ujh4XvmEaqzont41gkL96naodXKrGF6YSfQtUi0OXXDVlqPfJNP6usotUhYbJIUMmQb/GGrAxpRljVycDBuc1hKM2LclX8/7H9nFfB+82Cd45T2+mcspcSRmu4F);spacingTop=-3;spacingBottom=-1;spacingLeft=-3;spacingRight=-3;labelBackgroundColor=none;rounded=0;html=1;whiteSpace=wrap;" parent="1" vertex="1">
          <mxGeometry x="186" y="698" width="22" height="22" as="geometry" />
        </mxCell>
        <mxCell id="GgjrJMBKcp33Ribkp8hx-73" style="vsdxID=102;edgeStyle=none;startArrow=none;endArrow=classic;startSize=5;endSize=5;strokeColor=#923931;spacingTop=0;spacingBottom=0;spacingLeft=0;spacingRight=0;verticalAlign=middle;html=1;labelBackgroundColor=#ffffff;rounded=0;" parent="1" edge="1">
          <mxGeometry relative="1" as="geometry">
            <Array as="points" />
            <mxPoint x="197" y="719" as="sourcePoint" />
            <mxPoint x="197" y="747" as="targetPoint" />
          </mxGeometry>
        </mxCell>
        <mxCell id="GgjrJMBKcp33Ribkp8hx-74" style="vsdxID=85;fillColor=#fff2cc;gradientColor=none;shape=stencil(nZBLDoAgDERP0z3SIyjew0SURgSD+Lu9kMZoXLhwN9O+tukAlrNpJg1SzDH4QW/URgNYgZTkjA4UkwJUgGXng+6DX1zLfmoymdXo17xh5zmRJ6Q42BWCfc2oJfdAr+Yv+AP9Cb7OJ3H/2JG1HNGz/84klThPVCc=);strokeColor=#000000;labelBackgroundColor=none;rounded=0;html=1;whiteSpace=wrap;" parent="1" vertex="1">
          <mxGeometry x="244" y="739" width="65" height="40" as="geometry" />
        </mxCell>
        <mxCell id="GgjrJMBKcp33Ribkp8hx-75" style="vsdxID=102;edgeStyle=none;startArrow=none;endArrow=classic;startSize=5;endSize=5;strokeColor=#923931;spacingTop=0;spacingBottom=0;spacingLeft=0;spacingRight=0;verticalAlign=middle;html=1;labelBackgroundColor=#ffffff;rounded=0;" parent="1" edge="1">
          <mxGeometry relative="1" as="geometry">
            <Array as="points" />
            <mxPoint x="276" y="779" as="sourcePoint" />
            <mxPoint x="276" y="807" as="targetPoint" />
          </mxGeometry>
        </mxCell>
        <mxCell id="GgjrJMBKcp33Ribkp8hx-76" value="&lt;span style=&quot;font-family: &amp;#34;calibri&amp;#34; , sans-serif ; font-size: 14.6667px ; text-align: left&quot;&gt;τ&lt;/span&gt;&lt;sub style=&quot;font-family: &amp;#34;calibri&amp;#34; , sans-serif ; text-align: left&quot;&gt;2&lt;/sub&gt;&lt;sub style=&quot;font-family: &amp;#34;cambria math&amp;#34; ; letter-spacing: 0px&quot;&gt;*&lt;/sub&gt;&lt;span style=&quot;font-family: &amp;#34;cambria math&amp;#34; ; font-size: 15px ; letter-spacing: 0px&quot;&gt;a&lt;/span&gt;&lt;sub style=&quot;font-family: &amp;#34;cambria math&amp;#34; ; letter-spacing: 0px&quot;&gt;6&lt;/sub&gt;&lt;sub style=&quot;font-family: &amp;#34;cambria math&amp;#34;&quot;&gt;&lt;br&gt;&lt;/sub&gt;" style="verticalAlign=middle;align=center;vsdxID=66;fillColor=#FFFFFF;gradientColor=none;shape=stencil(vVHLDsIgEPwajiQI6RfU+h8bu22JCGRB2/69kG1iazx58DazM/vIjjBtmiCi0CplCjecbZ8nYc5Ca+snJJsLEqYTph0C4Ujh4XvmEaqzont41gkL96naodXKrGF6YSfQtUi0OXXDVlqPfJNP6usotUhYbJIUMmQb/GGrAxpRljVycDBuc1hKM2LclX8/7H9nFfB+82Cd45T2+mcspcSRmu4F);spacingTop=-3;spacingBottom=-1;spacingLeft=-3;spacingRight=-3;labelBackgroundColor=none;rounded=0;html=1;whiteSpace=wrap;" parent="1" vertex="1">
          <mxGeometry x="251" y="747" width="50" height="28" as="geometry" />
        </mxCell>
        <mxCell id="GgjrJMBKcp33Ribkp8hx-77" value="&lt;p style=&quot;margin-left: 0 ; margin-right: 0 ; margin-top: 0px ; margin-bottom: 0px ; text-indent: 0 ; direction: ltr&quot;&gt;&lt;font style=&quot;font-size: 15px ; font-family: &amp;#34;cambria math&amp;#34; ; color: #000000 ; direction: ltr ; letter-spacing: 0px ; line-height: 120% ; opacity: 1&quot;&gt;a&lt;sub&gt;6&lt;/sub&gt;&lt;/font&gt;&lt;/p&gt;" style="verticalAlign=middle;align=center;vsdxID=66;fillColor=#FFFFFF;gradientColor=none;shape=stencil(vVHLDsIgEPwajiQI6RfU+h8bu22JCGRB2/69kG1iazx58DazM/vIjjBtmiCi0CplCjecbZ8nYc5Ca+snJJsLEqYTph0C4Ujh4XvmEaqzont41gkL96naodXKrGF6YSfQtUi0OXXDVlqPfJNP6usotUhYbJIUMmQb/GGrAxpRljVycDBuc1hKM2LclX8/7H9nFfB+82Cd45T2+mcspcSRmu4F);spacingTop=-3;spacingBottom=-1;spacingLeft=-3;spacingRight=-3;labelBackgroundColor=none;rounded=0;html=1;whiteSpace=wrap;" parent="1" vertex="1">
          <mxGeometry x="264" y="698" width="22" height="22" as="geometry" />
        </mxCell>
        <mxCell id="GgjrJMBKcp33Ribkp8hx-78" style="vsdxID=102;edgeStyle=none;startArrow=none;endArrow=classic;startSize=5;endSize=5;strokeColor=#923931;spacingTop=0;spacingBottom=0;spacingLeft=0;spacingRight=0;verticalAlign=middle;html=1;labelBackgroundColor=#ffffff;rounded=0;" parent="1" edge="1">
          <mxGeometry relative="1" as="geometry">
            <Array as="points" />
            <mxPoint x="275" y="719" as="sourcePoint" />
            <mxPoint x="275" y="747" as="targetPoint" />
          </mxGeometry>
        </mxCell>
        <mxCell id="GgjrJMBKcp33Ribkp8hx-79" style="vsdxID=85;fillColor=#fff2cc;gradientColor=none;shape=stencil(nZBLDoAgDERP0z3SIyjew0SURgSD+Lu9kMZoXLhwN9O+tukAlrNpJg1SzDH4QW/URgNYgZTkjA4UkwJUgGXng+6DX1zLfmoymdXo17xh5zmRJ6Q42BWCfc2oJfdAr+Yv+AP9Cb7OJ3H/2JG1HNGz/84klThPVCc=);strokeColor=#000000;labelBackgroundColor=none;rounded=0;html=1;whiteSpace=wrap;" parent="1" vertex="1">
          <mxGeometry x="318" y="739" width="65" height="40" as="geometry" />
        </mxCell>
        <mxCell id="GgjrJMBKcp33Ribkp8hx-80" style="vsdxID=102;edgeStyle=none;startArrow=none;endArrow=classic;startSize=5;endSize=5;strokeColor=#923931;spacingTop=0;spacingBottom=0;spacingLeft=0;spacingRight=0;verticalAlign=middle;html=1;labelBackgroundColor=#ffffff;rounded=0;" parent="1" edge="1">
          <mxGeometry relative="1" as="geometry">
            <Array as="points" />
            <mxPoint x="350" y="779" as="sourcePoint" />
            <mxPoint x="350" y="807" as="targetPoint" />
          </mxGeometry>
        </mxCell>
        <mxCell id="GgjrJMBKcp33Ribkp8hx-81" value="&lt;span style=&quot;text-align: left&quot;&gt;&amp;nbsp; δ&lt;/span&gt;&lt;sub style=&quot;text-align: left&quot;&gt;2&lt;/sub&gt;&lt;sub style=&quot;font-family: &amp;#34;cambria math&amp;#34; ; letter-spacing: 0px&quot;&gt;*&lt;/sub&gt;&lt;span style=&quot;font-family: &amp;#34;cambria math&amp;#34; ; font-size: 15px ; letter-spacing: 0px&quot;&gt;a&lt;/span&gt;&lt;sub style=&quot;font-family: &amp;#34;cambria math&amp;#34; ; letter-spacing: 0px&quot;&gt;7&lt;/sub&gt;&lt;sub style=&quot;font-family: &amp;#34;cambria math&amp;#34;&quot;&gt;&lt;br&gt;&lt;/sub&gt;" style="verticalAlign=middle;align=center;vsdxID=66;fillColor=#FFFFFF;gradientColor=none;shape=stencil(vVHLDsIgEPwajiQI6RfU+h8bu22JCGRB2/69kG1iazx58DazM/vIjjBtmiCi0CplCjecbZ8nYc5Ca+snJJsLEqYTph0C4Ujh4XvmEaqzont41gkL96naodXKrGF6YSfQtUi0OXXDVlqPfJNP6usotUhYbJIUMmQb/GGrAxpRljVycDBuc1hKM2LclX8/7H9nFfB+82Cd45T2+mcspcSRmu4F);spacingTop=-3;spacingBottom=-1;spacingLeft=-3;spacingRight=-3;labelBackgroundColor=none;rounded=0;html=1;whiteSpace=wrap;" parent="1" vertex="1">
          <mxGeometry x="325" y="747" width="50" height="28" as="geometry" />
        </mxCell>
        <mxCell id="GgjrJMBKcp33Ribkp8hx-82" value="&lt;p style=&quot;margin-left: 0 ; margin-right: 0 ; margin-top: 0px ; margin-bottom: 0px ; text-indent: 0 ; direction: ltr&quot;&gt;&lt;font style=&quot;font-size: 15px ; font-family: &amp;#34;cambria math&amp;#34; ; color: #000000 ; direction: ltr ; letter-spacing: 0px ; line-height: 120% ; opacity: 1&quot;&gt;a&lt;sub&gt;7&lt;/sub&gt;&lt;/font&gt;&lt;/p&gt;" style="verticalAlign=middle;align=center;vsdxID=66;fillColor=#FFFFFF;gradientColor=none;shape=stencil(vVHLDsIgEPwajiQI6RfU+h8bu22JCGRB2/69kG1iazx58DazM/vIjjBtmiCi0CplCjecbZ8nYc5Ca+snJJsLEqYTph0C4Ujh4XvmEaqzont41gkL96naodXKrGF6YSfQtUi0OXXDVlqPfJNP6usotUhYbJIUMmQb/GGrAxpRljVycDBuc1hKM2LclX8/7H9nFfB+82Cd45T2+mcspcSRmu4F);spacingTop=-3;spacingBottom=-1;spacingLeft=-3;spacingRight=-3;labelBackgroundColor=none;rounded=0;html=1;whiteSpace=wrap;" parent="1" vertex="1">
          <mxGeometry x="338" y="698" width="22" height="22" as="geometry" />
        </mxCell>
        <mxCell id="GgjrJMBKcp33Ribkp8hx-83" style="vsdxID=102;edgeStyle=none;startArrow=none;endArrow=classic;startSize=5;endSize=5;strokeColor=#923931;spacingTop=0;spacingBottom=0;spacingLeft=0;spacingRight=0;verticalAlign=middle;html=1;labelBackgroundColor=#ffffff;rounded=0;" parent="1" edge="1">
          <mxGeometry relative="1" as="geometry">
            <Array as="points" />
            <mxPoint x="349" y="719" as="sourcePoint" />
            <mxPoint x="349" y="747" as="targetPoint" />
          </mxGeometry>
        </mxCell>
        <mxCell id="GgjrJMBKcp33Ribkp8hx-84" value="&lt;span style=&quot;text-align: left&quot;&gt;β&lt;sub&gt;2&lt;/sub&gt;&lt;/span&gt;" style="text;html=1;align=center;verticalAlign=middle;resizable=0;points=[];autosize=1;strokeColor=none;fillColor=none;" parent="1" vertex="1">
          <mxGeometry x="-133" y="720" width="30" height="20" as="geometry" />
        </mxCell>
        <mxCell id="GgjrJMBKcp33Ribkp8hx-85" value="&lt;span style=&quot;text-align: left&quot;&gt;γ&lt;sub&gt;2&lt;/sub&gt;&lt;/span&gt;" style="text;html=1;align=center;verticalAlign=middle;resizable=0;points=[];autosize=1;strokeColor=none;fillColor=none;" parent="1" vertex="1">
          <mxGeometry x="-66" y="720" width="30" height="20" as="geometry" />
        </mxCell>
        <mxCell id="GgjrJMBKcp33Ribkp8hx-87" value="&lt;span style=&quot;text-align: left&quot;&gt;λ&lt;sub&gt;2&lt;/sub&gt;&lt;/span&gt;" style="text;html=1;align=center;verticalAlign=middle;resizable=0;points=[];autosize=1;strokeColor=none;fillColor=none;" parent="1" vertex="1">
          <mxGeometry x="14" y="720" width="30" height="20" as="geometry" />
        </mxCell>
        <mxCell id="GgjrJMBKcp33Ribkp8hx-88" value="&lt;span style=&quot;text-align: left&quot;&gt;σ&lt;sub&gt;2&lt;/sub&gt;&lt;/span&gt;" style="text;html=1;align=center;verticalAlign=middle;resizable=0;points=[];autosize=1;strokeColor=none;fillColor=none;" parent="1" vertex="1">
          <mxGeometry x="94" y="720" width="30" height="20" as="geometry" />
        </mxCell>
        <mxCell id="GgjrJMBKcp33Ribkp8hx-89" value="&lt;span style=&quot;font-family: &amp;#34;calibri&amp;#34; , sans-serif ; font-size: 14.6667px ; text-align: left&quot;&gt;π&lt;sub&gt;2&lt;/sub&gt;&lt;/span&gt;" style="text;html=1;align=center;verticalAlign=middle;resizable=0;points=[];autosize=1;strokeColor=none;fillColor=none;" parent="1" vertex="1">
          <mxGeometry x="164" y="720" width="30" height="20" as="geometry" />
        </mxCell>
        <mxCell id="GgjrJMBKcp33Ribkp8hx-90" value="&lt;span style=&quot;font-family: &amp;#34;calibri&amp;#34; , sans-serif ; font-size: 14.6667px ; text-align: left&quot;&gt;τ&lt;sub&gt;2&lt;/sub&gt;&lt;/span&gt;" style="text;html=1;align=center;verticalAlign=middle;resizable=0;points=[];autosize=1;strokeColor=none;fillColor=none;" parent="1" vertex="1">
          <mxGeometry x="244" y="720" width="30" height="20" as="geometry" />
        </mxCell>
        <mxCell id="GgjrJMBKcp33Ribkp8hx-91" value="&lt;span style=&quot;text-align: left&quot;&gt;&amp;nbsp; δ&lt;sub&gt;2&lt;/sub&gt;&lt;/span&gt;" style="text;html=1;align=center;verticalAlign=middle;resizable=0;points=[];autosize=1;strokeColor=none;fillColor=none;" parent="1" vertex="1">
          <mxGeometry x="314" y="720" width="30" height="20" as="geometry" />
        </mxCell>
        <mxCell id="GgjrJMBKcp33Ribkp8hx-93" style="vsdxID=102;edgeStyle=none;startArrow=none;endArrow=classic;startSize=5;endSize=5;strokeColor=#923931;spacingTop=0;spacingBottom=0;spacingLeft=0;spacingRight=0;verticalAlign=middle;html=1;labelBackgroundColor=#ffffff;rounded=0;" parent="1" edge="1">
          <mxGeometry relative="1" as="geometry">
            <Array as="points" />
            <mxPoint x="198" y="856" as="sourcePoint" />
            <mxPoint x="198" y="884" as="targetPoint" />
          </mxGeometry>
        </mxCell>
        <mxCell id="GgjrJMBKcp33Ribkp8hx-94" style="vsdxID=102;edgeStyle=none;startArrow=none;endArrow=classic;startSize=5;endSize=5;strokeColor=#923931;spacingTop=0;spacingBottom=0;spacingLeft=0;spacingRight=0;verticalAlign=middle;html=1;labelBackgroundColor=#ffffff;rounded=0;" parent="1" edge="1">
          <mxGeometry relative="1" as="geometry">
            <Array as="points" />
            <mxPoint x="277" y="859" as="sourcePoint" />
            <mxPoint x="277" y="887" as="targetPoint" />
          </mxGeometry>
        </mxCell>
        <mxCell id="GgjrJMBKcp33Ribkp8hx-95" style="vsdxID=102;edgeStyle=none;startArrow=none;endArrow=classic;startSize=5;endSize=5;strokeColor=#923931;spacingTop=0;spacingBottom=0;spacingLeft=0;spacingRight=0;verticalAlign=middle;html=1;labelBackgroundColor=#ffffff;rounded=0;" parent="1" edge="1">
          <mxGeometry relative="1" as="geometry">
            <Array as="points" />
            <mxPoint x="352" y="859" as="sourcePoint" />
            <mxPoint x="352" y="887" as="targetPoint" />
          </mxGeometry>
        </mxCell>
        <mxCell id="GgjrJMBKcp33Ribkp8hx-96" value="-1" style="text;html=1;align=center;verticalAlign=middle;resizable=0;points=[];autosize=1;strokeColor=none;fillColor=none;" parent="1" vertex="1">
          <mxGeometry x="166" y="860" width="30" height="20" as="geometry" />
        </mxCell>
        <mxCell id="GgjrJMBKcp33Ribkp8hx-97" value="1" style="text;html=1;align=center;verticalAlign=middle;resizable=0;points=[];autosize=1;strokeColor=none;fillColor=none;" parent="1" vertex="1">
          <mxGeometry x="251" y="860" width="20" height="20" as="geometry" />
        </mxCell>
        <mxCell id="GgjrJMBKcp33Ribkp8hx-98" value="1" style="text;html=1;align=center;verticalAlign=middle;resizable=0;points=[];autosize=1;strokeColor=none;fillColor=none;" parent="1" vertex="1">
          <mxGeometry x="329" y="860" width="20" height="20" as="geometry" />
        </mxCell>
        <mxCell id="GgjrJMBKcp33Ribkp8hx-101" style="vsdxID=197;fillColor=#EBF1DF;gradientColor=none;shape=stencil(nZBLDoAgDERP0z3SIyjew0SURgSD+Lu9kMZoXLhwN9O+tukAlrNpJg1SzDH4QW/URgNYgZTkjA4UkwJUgGXng+6DX1zLfmoymdXo17xh5zmRJ6Q42BWCfc2oJfdAr+Yv+AP9Cb7OJ3H/2JG1HNGz/84klThPVCc=);strokeColor=#000000;labelBackgroundColor=none;rounded=0;html=1;whiteSpace=wrap;" parent="1" vertex="1">
          <mxGeometry x="-658" y="888" width="519" height="53" as="geometry" />
        </mxCell>
        <mxCell id="GgjrJMBKcp33Ribkp8hx-102" style="vsdxID=93;fillColor=#f2dcda;gradientColor=none;shape=stencil(nZBLDoAgDERP0z3SIyjew0SURgSD+Lu9kMZoXLhwN9O+tukAlrNpJg1SzDH4QW/URgNYgZTkjA4UkwJUgGXng+6DX1zLfmoymdXo17xh5zmRJ6Q42BWCfc2oJfdAr+Yv+AP9Cb7OJ3H/2JG1HNGz/84klThPVCc=);strokeColor=#000000;labelBackgroundColor=none;rounded=0;html=1;whiteSpace=wrap;" parent="1" vertex="1">
          <mxGeometry x="-659" y="808" width="520" height="47" as="geometry" />
        </mxCell>
        <mxCell id="GgjrJMBKcp33Ribkp8hx-103" style="vsdxID=247;edgeStyle=none;startArrow=none;endArrow=classic;startSize=5;endSize=5;strokeColor=#923931;spacingTop=0;spacingBottom=0;spacingLeft=0;spacingRight=0;verticalAlign=middle;html=1;labelBackgroundColor=#ffffff;rounded=0;" parent="1" edge="1">
          <mxGeometry relative="1" as="geometry">
            <Array as="points">
              <mxPoint x="-399" y="970" />
            </Array>
            <mxPoint x="-400" y="944" as="sourcePoint" />
            <mxPoint x="-400" y="980" as="targetPoint" />
          </mxGeometry>
        </mxCell>
        <mxCell id="GgjrJMBKcp33Ribkp8hx-104" value="&lt;p style=&quot;margin: 0px ; text-indent: 0px ; direction: ltr ; font-size: 14px&quot;&gt;&lt;/p&gt;&lt;font style=&quot;font-size: 15px&quot;&gt;Z&lt;sub&gt;1&lt;/sub&gt;&lt;br&gt;&lt;/font&gt;" style="verticalAlign=middle;align=center;vsdxID=71;shape=stencil(vVHLDsIgEPwajiQI6RfU+h8bu22JCGRB2/69kG1iazx58DazM/vIjjBtmiCi0CplCjecbZ8nYc5Ca+snJJsLEqYTph0C4Ujh4XvmEaqzont41gkL96naodXKrGF6YSfQtUi0OXXDVlqPfJNP6usotUhYbJIUMmQb/GGrAxpRljVycDBuc1hKM2LclX8/7H9nFfB+82Cd45T2+mcspcSRmu4F);spacingTop=-3;spacingBottom=-1;spacingLeft=-3;spacingRight=-3;labelBackgroundColor=none;rounded=0;html=1;whiteSpace=wrap;" parent="1" vertex="1">
          <mxGeometry x="-530" y="900" width="276" height="34.5" as="geometry" />
        </mxCell>
        <mxCell id="GgjrJMBKcp33Ribkp8hx-105" style="vsdxID=85;fillColor=#fff2cc;gradientColor=none;shape=stencil(nZBLDoAgDERP0z3SIyjew0SURgSD+Lu9kMZoXLhwN9O+tukAlrNpJg1SzDH4QW/URgNYgZTkjA4UkwJUgGXng+6DX1zLfmoymdXo17xh5zmRJ6Q42BWCfc2oJfdAr+Yv+AP9Cb7OJ3H/2JG1HNGz/84klThPVCc=);strokeColor=#000000;labelBackgroundColor=none;rounded=0;html=1;whiteSpace=wrap;" parent="1" vertex="1">
          <mxGeometry x="-668" y="740" width="65" height="40" as="geometry" />
        </mxCell>
        <mxCell id="GgjrJMBKcp33Ribkp8hx-106" style="vsdxID=102;edgeStyle=none;startArrow=none;endArrow=classic;startSize=5;endSize=5;strokeColor=#923931;spacingTop=0;spacingBottom=0;spacingLeft=0;spacingRight=0;verticalAlign=middle;html=1;labelBackgroundColor=#ffffff;rounded=0;" parent="1" edge="1">
          <mxGeometry relative="1" as="geometry">
            <Array as="points" />
            <mxPoint x="-636" y="780" as="sourcePoint" />
            <mxPoint x="-636" y="808" as="targetPoint" />
          </mxGeometry>
        </mxCell>
        <mxCell id="GgjrJMBKcp33Ribkp8hx-107" value="&lt;span style=&quot;text-align: left&quot;&gt;β&lt;/span&gt;&lt;sub style=&quot;text-align: left&quot;&gt;2&lt;/sub&gt;&lt;sub style=&quot;font-family: &amp;#34;cambria math&amp;#34; ; letter-spacing: 0px&quot;&gt;*&lt;/sub&gt;&lt;span style=&quot;font-family: &amp;#34;cambria math&amp;#34; ; font-size: 15px ; letter-spacing: 0px&quot;&gt;a&lt;/span&gt;&lt;sub style=&quot;font-family: &amp;#34;cambria math&amp;#34; ; letter-spacing: 0px&quot;&gt;1&lt;/sub&gt;&lt;sub style=&quot;font-family: &amp;#34;cambria math&amp;#34;&quot;&gt;&lt;br&gt;&lt;/sub&gt;" style="verticalAlign=middle;align=center;vsdxID=66;fillColor=#FFFFFF;gradientColor=none;shape=stencil(vVHLDsIgEPwajiQI6RfU+h8bu22JCGRB2/69kG1iazx58DazM/vIjjBtmiCi0CplCjecbZ8nYc5Ca+snJJsLEqYTph0C4Ujh4XvmEaqzont41gkL96naodXKrGF6YSfQtUi0OXXDVlqPfJNP6usotUhYbJIUMmQb/GGrAxpRljVycDBuc1hKM2LclX8/7H9nFfB+82Cd45T2+mcspcSRmu4F);spacingTop=-3;spacingBottom=-1;spacingLeft=-3;spacingRight=-3;labelBackgroundColor=none;rounded=0;html=1;whiteSpace=wrap;" parent="1" vertex="1">
          <mxGeometry x="-661" y="748" width="50" height="28" as="geometry" />
        </mxCell>
        <mxCell id="GgjrJMBKcp33Ribkp8hx-108" value="&lt;p style=&quot;margin-left: 0 ; margin-right: 0 ; margin-top: 0px ; margin-bottom: 0px ; text-indent: 0 ; direction: ltr&quot;&gt;&lt;font style=&quot;font-family: &amp;#34;cambria math&amp;#34; ; color: rgb(0 , 0 , 0) ; direction: ltr ; letter-spacing: 0px ; line-height: 120% ; opacity: 1 ; font-size: 15px&quot;&gt;a&lt;sub&gt;1&lt;/sub&gt;&lt;/font&gt;&lt;/p&gt;" style="verticalAlign=middle;align=center;vsdxID=66;fillColor=#FFFFFF;gradientColor=none;shape=stencil(vVHLDsIgEPwajiQI6RfU+h8bu22JCGRB2/69kG1iazx58DazM/vIjjBtmiCi0CplCjecbZ8nYc5Ca+snJJsLEqYTph0C4Ujh4XvmEaqzont41gkL96naodXKrGF6YSfQtUi0OXXDVlqPfJNP6usotUhYbJIUMmQb/GGrAxpRljVycDBuc1hKM2LclX8/7H9nFfB+82Cd45T2+mcspcSRmu4F);spacingTop=-3;spacingBottom=-1;spacingLeft=-3;spacingRight=-3;labelBackgroundColor=none;rounded=0;html=1;whiteSpace=wrap;" parent="1" vertex="1">
          <mxGeometry x="-648" y="699" width="22" height="22" as="geometry" />
        </mxCell>
        <mxCell id="GgjrJMBKcp33Ribkp8hx-109" style="vsdxID=102;edgeStyle=none;startArrow=none;endArrow=classic;startSize=5;endSize=5;strokeColor=#923931;spacingTop=0;spacingBottom=0;spacingLeft=0;spacingRight=0;verticalAlign=middle;html=1;labelBackgroundColor=#ffffff;rounded=0;" parent="1" edge="1">
          <mxGeometry relative="1" as="geometry">
            <Array as="points" />
            <mxPoint x="-637" y="720" as="sourcePoint" />
            <mxPoint x="-637" y="748" as="targetPoint" />
          </mxGeometry>
        </mxCell>
        <mxCell id="GgjrJMBKcp33Ribkp8hx-111" style="vsdxID=85;fillColor=#fff2cc;gradientColor=none;shape=stencil(nZBLDoAgDERP0z3SIyjew0SURgSD+Lu9kMZoXLhwN9O+tukAlrNpJg1SzDH4QW/URgNYgZTkjA4UkwJUgGXng+6DX1zLfmoymdXo17xh5zmRJ6Q42BWCfc2oJfdAr+Yv+AP9Cb7OJ3H/2JG1HNGz/84klThPVCc=);strokeColor=#000000;labelBackgroundColor=none;rounded=0;html=1;whiteSpace=wrap;" parent="1" vertex="1">
          <mxGeometry x="-592" y="740" width="65" height="40" as="geometry" />
        </mxCell>
        <mxCell id="GgjrJMBKcp33Ribkp8hx-112" style="vsdxID=102;edgeStyle=none;startArrow=none;endArrow=classic;startSize=5;endSize=5;strokeColor=#923931;spacingTop=0;spacingBottom=0;spacingLeft=0;spacingRight=0;verticalAlign=middle;html=1;labelBackgroundColor=#ffffff;rounded=0;" parent="1" edge="1">
          <mxGeometry relative="1" as="geometry">
            <Array as="points" />
            <mxPoint x="-560" y="780" as="sourcePoint" />
            <mxPoint x="-560" y="808" as="targetPoint" />
          </mxGeometry>
        </mxCell>
        <mxCell id="GgjrJMBKcp33Ribkp8hx-113" value="&lt;span style=&quot;text-align: left&quot;&gt;γ&lt;/span&gt;&lt;sub style=&quot;text-align: left&quot;&gt;2&lt;/sub&gt;&lt;sub style=&quot;font-family: &amp;#34;cambria math&amp;#34; ; letter-spacing: 0px&quot;&gt;*&lt;/sub&gt;&lt;span style=&quot;font-family: &amp;#34;cambria math&amp;#34; ; font-size: 15px ; letter-spacing: 0px&quot;&gt;a&lt;/span&gt;&lt;sub style=&quot;font-family: &amp;#34;cambria math&amp;#34; ; letter-spacing: 0px&quot;&gt;2&lt;/sub&gt;&lt;sub style=&quot;font-family: &amp;#34;cambria math&amp;#34;&quot;&gt;&lt;br&gt;&lt;/sub&gt;" style="verticalAlign=middle;align=center;vsdxID=66;fillColor=#FFFFFF;gradientColor=none;shape=stencil(vVHLDsIgEPwajiQI6RfU+h8bu22JCGRB2/69kG1iazx58DazM/vIjjBtmiCi0CplCjecbZ8nYc5Ca+snJJsLEqYTph0C4Ujh4XvmEaqzont41gkL96naodXKrGF6YSfQtUi0OXXDVlqPfJNP6usotUhYbJIUMmQb/GGrAxpRljVycDBuc1hKM2LclX8/7H9nFfB+82Cd45T2+mcspcSRmu4F);spacingTop=-3;spacingBottom=-1;spacingLeft=-3;spacingRight=-3;labelBackgroundColor=none;rounded=0;html=1;whiteSpace=wrap;" parent="1" vertex="1">
          <mxGeometry x="-585" y="748" width="50" height="28" as="geometry" />
        </mxCell>
        <mxCell id="GgjrJMBKcp33Ribkp8hx-114" value="&lt;p style=&quot;margin-left: 0 ; margin-right: 0 ; margin-top: 0px ; margin-bottom: 0px ; text-indent: 0 ; direction: ltr&quot;&gt;&lt;font style=&quot;font-size: 15px ; font-family: &amp;#34;cambria math&amp;#34; ; color: #000000 ; direction: ltr ; letter-spacing: 0px ; line-height: 120% ; opacity: 1&quot;&gt;a&lt;sub&gt;2&lt;/sub&gt;&lt;/font&gt;&lt;/p&gt;" style="verticalAlign=middle;align=center;vsdxID=66;fillColor=#FFFFFF;gradientColor=none;shape=stencil(vVHLDsIgEPwajiQI6RfU+h8bu22JCGRB2/69kG1iazx58DazM/vIjjBtmiCi0CplCjecbZ8nYc5Ca+snJJsLEqYTph0C4Ujh4XvmEaqzont41gkL96naodXKrGF6YSfQtUi0OXXDVlqPfJNP6usotUhYbJIUMmQb/GGrAxpRljVycDBuc1hKM2LclX8/7H9nFfB+82Cd45T2+mcspcSRmu4F);spacingTop=-3;spacingBottom=-1;spacingLeft=-3;spacingRight=-3;labelBackgroundColor=none;rounded=0;html=1;whiteSpace=wrap;" parent="1" vertex="1">
          <mxGeometry x="-572" y="699" width="22" height="22" as="geometry" />
        </mxCell>
        <mxCell id="GgjrJMBKcp33Ribkp8hx-115" style="vsdxID=102;edgeStyle=none;startArrow=none;endArrow=classic;startSize=5;endSize=5;strokeColor=#923931;spacingTop=0;spacingBottom=0;spacingLeft=0;spacingRight=0;verticalAlign=middle;html=1;labelBackgroundColor=#ffffff;rounded=0;" parent="1" edge="1">
          <mxGeometry relative="1" as="geometry">
            <Array as="points" />
            <mxPoint x="-561" y="720" as="sourcePoint" />
            <mxPoint x="-561" y="748" as="targetPoint" />
          </mxGeometry>
        </mxCell>
        <mxCell id="GgjrJMBKcp33Ribkp8hx-116" style="vsdxID=85;fillColor=#fff2cc;gradientColor=none;shape=stencil(nZBLDoAgDERP0z3SIyjew0SURgSD+Lu9kMZoXLhwN9O+tukAlrNpJg1SzDH4QW/URgNYgZTkjA4UkwJUgGXng+6DX1zLfmoymdXo17xh5zmRJ6Q42BWCfc2oJfdAr+Yv+AP9Cb7OJ3H/2JG1HNGz/84klThPVCc=);strokeColor=#000000;labelBackgroundColor=none;rounded=0;html=1;whiteSpace=wrap;" parent="1" vertex="1">
          <mxGeometry x="-516" y="740" width="65" height="40" as="geometry" />
        </mxCell>
        <mxCell id="GgjrJMBKcp33Ribkp8hx-117" style="vsdxID=102;edgeStyle=none;startArrow=none;endArrow=classic;startSize=5;endSize=5;strokeColor=#923931;spacingTop=0;spacingBottom=0;spacingLeft=0;spacingRight=0;verticalAlign=middle;html=1;labelBackgroundColor=#ffffff;rounded=0;" parent="1" edge="1">
          <mxGeometry relative="1" as="geometry">
            <Array as="points" />
            <mxPoint x="-484" y="780" as="sourcePoint" />
            <mxPoint x="-484" y="808" as="targetPoint" />
          </mxGeometry>
        </mxCell>
        <mxCell id="GgjrJMBKcp33Ribkp8hx-118" value="&lt;span style=&quot;text-align: left&quot;&gt;λ&lt;/span&gt;&lt;sub style=&quot;text-align: left&quot;&gt;2&lt;/sub&gt;&lt;sub style=&quot;font-family: &amp;#34;cambria math&amp;#34; ; letter-spacing: 0px&quot;&gt;*&lt;/sub&gt;&lt;span style=&quot;font-family: &amp;#34;cambria math&amp;#34; ; font-size: 15px ; letter-spacing: 0px&quot;&gt;a&lt;/span&gt;&lt;sub style=&quot;font-family: &amp;#34;cambria math&amp;#34; ; letter-spacing: 0px&quot;&gt;3&lt;/sub&gt;&lt;sub style=&quot;font-family: &amp;#34;cambria math&amp;#34;&quot;&gt;&lt;br&gt;&lt;/sub&gt;" style="verticalAlign=middle;align=center;vsdxID=66;fillColor=#FFFFFF;gradientColor=none;shape=stencil(vVHLDsIgEPwajiQI6RfU+h8bu22JCGRB2/69kG1iazx58DazM/vIjjBtmiCi0CplCjecbZ8nYc5Ca+snJJsLEqYTph0C4Ujh4XvmEaqzont41gkL96naodXKrGF6YSfQtUi0OXXDVlqPfJNP6usotUhYbJIUMmQb/GGrAxpRljVycDBuc1hKM2LclX8/7H9nFfB+82Cd45T2+mcspcSRmu4F);spacingTop=-3;spacingBottom=-1;spacingLeft=-3;spacingRight=-3;labelBackgroundColor=none;rounded=0;html=1;whiteSpace=wrap;" parent="1" vertex="1">
          <mxGeometry x="-509" y="748" width="50" height="28" as="geometry" />
        </mxCell>
        <mxCell id="GgjrJMBKcp33Ribkp8hx-119" value="&lt;p style=&quot;margin-left: 0 ; margin-right: 0 ; margin-top: 0px ; margin-bottom: 0px ; text-indent: 0 ; direction: ltr&quot;&gt;&lt;font style=&quot;font-size: 15px ; font-family: &amp;#34;cambria math&amp;#34; ; color: #000000 ; direction: ltr ; letter-spacing: 0px ; line-height: 120% ; opacity: 1&quot;&gt;a&lt;sub&gt;3&lt;/sub&gt;&lt;/font&gt;&lt;/p&gt;" style="verticalAlign=middle;align=center;vsdxID=66;fillColor=#FFFFFF;gradientColor=none;shape=stencil(vVHLDsIgEPwajiQI6RfU+h8bu22JCGRB2/69kG1iazx58DazM/vIjjBtmiCi0CplCjecbZ8nYc5Ca+snJJsLEqYTph0C4Ujh4XvmEaqzont41gkL96naodXKrGF6YSfQtUi0OXXDVlqPfJNP6usotUhYbJIUMmQb/GGrAxpRljVycDBuc1hKM2LclX8/7H9nFfB+82Cd45T2+mcspcSRmu4F);spacingTop=-3;spacingBottom=-1;spacingLeft=-3;spacingRight=-3;labelBackgroundColor=none;rounded=0;html=1;whiteSpace=wrap;" parent="1" vertex="1">
          <mxGeometry x="-496" y="699" width="22" height="22" as="geometry" />
        </mxCell>
        <mxCell id="GgjrJMBKcp33Ribkp8hx-120" style="vsdxID=102;edgeStyle=none;startArrow=none;endArrow=classic;startSize=5;endSize=5;strokeColor=#923931;spacingTop=0;spacingBottom=0;spacingLeft=0;spacingRight=0;verticalAlign=middle;html=1;labelBackgroundColor=#ffffff;rounded=0;" parent="1" edge="1">
          <mxGeometry relative="1" as="geometry">
            <Array as="points" />
            <mxPoint x="-485" y="720" as="sourcePoint" />
            <mxPoint x="-485" y="748" as="targetPoint" />
          </mxGeometry>
        </mxCell>
        <mxCell id="GgjrJMBKcp33Ribkp8hx-121" style="vsdxID=85;fillColor=#fff2cc;gradientColor=none;shape=stencil(nZBLDoAgDERP0z3SIyjew0SURgSD+Lu9kMZoXLhwN9O+tukAlrNpJg1SzDH4QW/URgNYgZTkjA4UkwJUgGXng+6DX1zLfmoymdXo17xh5zmRJ6Q42BWCfc2oJfdAr+Yv+AP9Cb7OJ3H/2JG1HNGz/84klThPVCc=);strokeColor=#000000;labelBackgroundColor=none;rounded=0;html=1;whiteSpace=wrap;" parent="1" vertex="1">
          <mxGeometry x="-440" y="739" width="65" height="40" as="geometry" />
        </mxCell>
        <mxCell id="GgjrJMBKcp33Ribkp8hx-122" style="vsdxID=102;edgeStyle=none;startArrow=none;endArrow=classic;startSize=5;endSize=5;strokeColor=#923931;spacingTop=0;spacingBottom=0;spacingLeft=0;spacingRight=0;verticalAlign=middle;html=1;labelBackgroundColor=#ffffff;rounded=0;" parent="1" edge="1">
          <mxGeometry relative="1" as="geometry">
            <Array as="points" />
            <mxPoint x="-408" y="779" as="sourcePoint" />
            <mxPoint x="-408" y="807" as="targetPoint" />
          </mxGeometry>
        </mxCell>
        <mxCell id="GgjrJMBKcp33Ribkp8hx-123" value="&lt;span style=&quot;text-align: left&quot;&gt;σ&lt;/span&gt;&lt;sub style=&quot;text-align: left&quot;&gt;2&lt;/sub&gt;&lt;sub style=&quot;font-family: &amp;#34;cambria math&amp;#34; ; letter-spacing: 0px&quot;&gt;*&lt;/sub&gt;&lt;span style=&quot;font-family: &amp;#34;cambria math&amp;#34; ; font-size: 15px ; letter-spacing: 0px&quot;&gt;a&lt;/span&gt;&lt;sub style=&quot;font-family: &amp;#34;cambria math&amp;#34; ; letter-spacing: 0px&quot;&gt;4&lt;/sub&gt;&lt;sub style=&quot;font-family: &amp;#34;cambria math&amp;#34;&quot;&gt;&lt;br&gt;&lt;/sub&gt;" style="verticalAlign=middle;align=center;vsdxID=66;fillColor=#FFFFFF;gradientColor=none;shape=stencil(vVHLDsIgEPwajiQI6RfU+h8bu22JCGRB2/69kG1iazx58DazM/vIjjBtmiCi0CplCjecbZ8nYc5Ca+snJJsLEqYTph0C4Ujh4XvmEaqzont41gkL96naodXKrGF6YSfQtUi0OXXDVlqPfJNP6usotUhYbJIUMmQb/GGrAxpRljVycDBuc1hKM2LclX8/7H9nFfB+82Cd45T2+mcspcSRmu4F);spacingTop=-3;spacingBottom=-1;spacingLeft=-3;spacingRight=-3;labelBackgroundColor=none;rounded=0;html=1;whiteSpace=wrap;" parent="1" vertex="1">
          <mxGeometry x="-433" y="747" width="50" height="28" as="geometry" />
        </mxCell>
        <mxCell id="GgjrJMBKcp33Ribkp8hx-124" value="&lt;p style=&quot;margin-left: 0 ; margin-right: 0 ; margin-top: 0px ; margin-bottom: 0px ; text-indent: 0 ; direction: ltr&quot;&gt;&lt;font style=&quot;font-size: 15px ; font-family: &amp;#34;cambria math&amp;#34; ; color: #000000 ; direction: ltr ; letter-spacing: 0px ; line-height: 120% ; opacity: 1&quot;&gt;a&lt;sub&gt;4&lt;/sub&gt;&lt;/font&gt;&lt;/p&gt;" style="verticalAlign=middle;align=center;vsdxID=66;fillColor=#FFFFFF;gradientColor=none;shape=stencil(vVHLDsIgEPwajiQI6RfU+h8bu22JCGRB2/69kG1iazx58DazM/vIjjBtmiCi0CplCjecbZ8nYc5Ca+snJJsLEqYTph0C4Ujh4XvmEaqzont41gkL96naodXKrGF6YSfQtUi0OXXDVlqPfJNP6usotUhYbJIUMmQb/GGrAxpRljVycDBuc1hKM2LclX8/7H9nFfB+82Cd45T2+mcspcSRmu4F);spacingTop=-3;spacingBottom=-1;spacingLeft=-3;spacingRight=-3;labelBackgroundColor=none;rounded=0;html=1;whiteSpace=wrap;" parent="1" vertex="1">
          <mxGeometry x="-420" y="698" width="22" height="22" as="geometry" />
        </mxCell>
        <mxCell id="GgjrJMBKcp33Ribkp8hx-125" style="vsdxID=102;edgeStyle=none;startArrow=none;endArrow=classic;startSize=5;endSize=5;strokeColor=#923931;spacingTop=0;spacingBottom=0;spacingLeft=0;spacingRight=0;verticalAlign=middle;html=1;labelBackgroundColor=#ffffff;rounded=0;" parent="1" edge="1">
          <mxGeometry relative="1" as="geometry">
            <Array as="points" />
            <mxPoint x="-409" y="719" as="sourcePoint" />
            <mxPoint x="-409" y="747" as="targetPoint" />
          </mxGeometry>
        </mxCell>
        <mxCell id="GgjrJMBKcp33Ribkp8hx-126" value="&lt;p style=&quot;margin-left: 0 ; margin-right: 0 ; margin-top: 0px ; margin-bottom: 0px ; text-indent: 0 ; direction: ltr&quot;&gt;&lt;font style=&quot;font-size: 15px ; font-family: &amp;#34;cambria math&amp;#34; ; color: #000000 ; direction: ltr ; letter-spacing: 0px ; line-height: 120% ; opacity: 1&quot;&gt;a&lt;/font&gt;&lt;font style=&quot;font-family: &amp;#34;cambria math&amp;#34; ; color: rgb(0 , 0 , 0) ; direction: ltr ; letter-spacing: 0px ; line-height: 120% ; opacity: 1 ; font-size: 10.4167px&quot;&gt;&lt;sub&gt;8&lt;/sub&gt;&lt;/font&gt;&lt;/p&gt;" style="verticalAlign=middle;align=center;vsdxID=66;fillColor=#FFFFFF;gradientColor=none;shape=stencil(vVHLDsIgEPwajiQI6RfU+h8bu22JCGRB2/69kG1iazx58DazM/vIjjBtmiCi0CplCjecbZ8nYc5Ca+snJJsLEqYTph0C4Ujh4XvmEaqzont41gkL96naodXKrGF6YSfQtUi0OXXDVlqPfJNP6usotUhYbJIUMmQb/GGrAxpRljVycDBuc1hKM2LclX8/7H9nFfB+82Cd45T2+mcspcSRmu4F);spacingTop=-3;spacingBottom=-1;spacingLeft=-3;spacingRight=-3;labelBackgroundColor=none;rounded=0;html=1;whiteSpace=wrap;" parent="1" vertex="1">
          <mxGeometry x="-142" y="697" width="22" height="22" as="geometry" />
        </mxCell>
        <mxCell id="GgjrJMBKcp33Ribkp8hx-127" style="vsdxID=102;edgeStyle=none;startArrow=none;endArrow=classic;startSize=5;endSize=5;strokeColor=#923931;spacingTop=0;spacingBottom=0;spacingLeft=0;spacingRight=0;verticalAlign=middle;html=1;labelBackgroundColor=#ffffff;rounded=0;entryX=0.9;entryY=0.025;entryDx=0;entryDy=0;entryPerimeter=0;" parent="1" edge="1">
          <mxGeometry relative="1" as="geometry">
            <Array as="points" />
            <mxPoint x="-131" y="718" as="sourcePoint" />
            <mxPoint x="-131" y="1062" as="targetPoint" />
          </mxGeometry>
        </mxCell>
        <mxCell id="GgjrJMBKcp33Ribkp8hx-128" value="&lt;font face=&quot;cambria math&quot;&gt;&lt;span style=&quot;font-size: 15px&quot;&gt;-1&lt;/span&gt;&lt;/font&gt;" style="text;html=1;align=center;verticalAlign=middle;resizable=0;points=[];autosize=1;strokeColor=none;" parent="1" vertex="1">
          <mxGeometry x="-663" y="859" width="30" height="20" as="geometry" />
        </mxCell>
        <mxCell id="GgjrJMBKcp33Ribkp8hx-129" value="&lt;font face=&quot;cambria math&quot;&gt;&lt;span style=&quot;font-size: 15px&quot;&gt;-1&lt;/span&gt;&lt;/font&gt;" style="text;html=1;align=center;verticalAlign=middle;resizable=0;points=[];autosize=1;strokeColor=none;" parent="1" vertex="1">
          <mxGeometry x="-590" y="856" width="30" height="20" as="geometry" />
        </mxCell>
        <mxCell id="GgjrJMBKcp33Ribkp8hx-130" value="&lt;span style=&quot;font-family: &amp;#34;cambria math&amp;#34; ; font-size: 15px&quot;&gt;1&lt;/span&gt;" style="text;html=1;align=center;verticalAlign=middle;resizable=0;points=[];autosize=1;strokeColor=none;" parent="1" vertex="1">
          <mxGeometry x="-509" y="856" width="20" height="20" as="geometry" />
        </mxCell>
        <mxCell id="GgjrJMBKcp33Ribkp8hx-131" style="vsdxID=102;edgeStyle=none;startArrow=none;endArrow=classic;startSize=5;endSize=5;strokeColor=#923931;spacingTop=0;spacingBottom=0;spacingLeft=0;spacingRight=0;verticalAlign=middle;html=1;labelBackgroundColor=#ffffff;rounded=0;" parent="1" edge="1">
          <mxGeometry relative="1" as="geometry">
            <Array as="points" />
            <mxPoint x="-407" y="858" as="sourcePoint" />
            <mxPoint x="-407" y="886" as="targetPoint" />
          </mxGeometry>
        </mxCell>
        <mxCell id="GgjrJMBKcp33Ribkp8hx-132" value="&lt;font face=&quot;cambria math&quot;&gt;&lt;span style=&quot;font-size: 15px&quot;&gt;-1&lt;/span&gt;&lt;/font&gt;" style="text;html=1;align=center;verticalAlign=middle;resizable=0;points=[];autosize=1;strokeColor=none;" parent="1" vertex="1">
          <mxGeometry x="-438" y="858" width="30" height="20" as="geometry" />
        </mxCell>
        <mxCell id="GgjrJMBKcp33Ribkp8hx-133" style="vsdxID=102;edgeStyle=none;startArrow=none;endArrow=classic;startSize=5;endSize=5;strokeColor=#923931;spacingTop=0;spacingBottom=0;spacingLeft=0;spacingRight=0;verticalAlign=middle;html=1;labelBackgroundColor=#ffffff;rounded=0;" parent="1" edge="1">
          <mxGeometry relative="1" as="geometry">
            <Array as="points" />
            <mxPoint x="-488" y="857" as="sourcePoint" />
            <mxPoint x="-488" y="885" as="targetPoint" />
          </mxGeometry>
        </mxCell>
        <mxCell id="GgjrJMBKcp33Ribkp8hx-134" style="vsdxID=102;edgeStyle=none;startArrow=none;endArrow=classic;startSize=5;endSize=5;strokeColor=#923931;spacingTop=0;spacingBottom=0;spacingLeft=0;spacingRight=0;verticalAlign=middle;html=1;labelBackgroundColor=#ffffff;rounded=0;" parent="1" edge="1">
          <mxGeometry relative="1" as="geometry">
            <Array as="points" />
            <mxPoint x="-563" y="857" as="sourcePoint" />
            <mxPoint x="-563" y="885" as="targetPoint" />
          </mxGeometry>
        </mxCell>
        <mxCell id="GgjrJMBKcp33Ribkp8hx-135" style="vsdxID=102;edgeStyle=none;startArrow=none;endArrow=classic;startSize=5;endSize=5;strokeColor=#923931;spacingTop=0;spacingBottom=0;spacingLeft=0;spacingRight=0;verticalAlign=middle;html=1;labelBackgroundColor=#ffffff;rounded=0;" parent="1" edge="1">
          <mxGeometry relative="1" as="geometry">
            <Array as="points" />
            <mxPoint x="-636" y="858" as="sourcePoint" />
            <mxPoint x="-636" y="886" as="targetPoint" />
          </mxGeometry>
        </mxCell>
        <mxCell id="GgjrJMBKcp33Ribkp8hx-137" style="vsdxID=197;fillColor=#EBF1DF;gradientColor=none;shape=stencil(nZBLDoAgDERP0z3SIyjew0SURgSD+Lu9kMZoXLhwN9O+tukAlrNpJg1SzDH4QW/URgNYgZTkjA4UkwJUgGXng+6DX1zLfmoymdXo17xh5zmRJ6Q42BWCfc2oJfdAr+Yv+AP9Cb7OJ3H/2JG1HNGz/84klThPVCc=);strokeColor=#000000;labelBackgroundColor=none;rounded=0;html=1;whiteSpace=wrap;" parent="1" vertex="1">
          <mxGeometry x="-417" y="982" width="59" height="38" as="geometry" />
        </mxCell>
        <mxCell id="GgjrJMBKcp33Ribkp8hx-139" style="vsdxID=247;edgeStyle=none;startArrow=none;endArrow=classic;startSize=5;endSize=5;strokeColor=#923931;spacingTop=0;spacingBottom=0;spacingLeft=0;spacingRight=0;verticalAlign=middle;html=1;labelBackgroundColor=#ffffff;rounded=0;" parent="1" edge="1">
          <mxGeometry relative="1" as="geometry">
            <Array as="points" />
            <mxPoint x="-390" y="1022" as="sourcePoint" />
            <mxPoint x="-390" y="1058" as="targetPoint" />
          </mxGeometry>
        </mxCell>
        <mxCell id="GgjrJMBKcp33Ribkp8hx-140" style="vsdxID=197;fillColor=#e1d5e7;shape=stencil(nZBLDoAgDERP0z3SIyjew0SURgSD+Lu9kMZoXLhwN9O+tukAlrNpJg1SzDH4QW/URgNYgZTkjA4UkwJUgGXng+6DX1zLfmoymdXo17xh5zmRJ6Q42BWCfc2oJfdAr+Yv+AP9Cb7OJ3H/2JG1HNGz/84klThPVCc=);strokeColor=#9673a6;labelBackgroundColor=none;rounded=0;html=1;whiteSpace=wrap;" parent="1" vertex="1">
          <mxGeometry x="-399" y="1061" width="280" height="40" as="geometry" />
        </mxCell>
        <mxCell id="GgjrJMBKcp33Ribkp8hx-141" style="vsdxID=247;edgeStyle=none;startArrow=none;endArrow=classic;startSize=5;endSize=5;strokeColor=#923931;spacingTop=0;spacingBottom=0;spacingLeft=0;spacingRight=0;verticalAlign=middle;html=1;labelBackgroundColor=#ffffff;rounded=0;" parent="1" edge="1">
          <mxGeometry relative="1" as="geometry">
            <Array as="points" />
            <mxPoint x="-260" y="1102" as="sourcePoint" />
            <mxPoint x="-260" y="1138" as="targetPoint" />
          </mxGeometry>
        </mxCell>
        <mxCell id="GgjrJMBKcp33Ribkp8hx-142" value="&lt;p style=&quot;margin-left: 0 ; margin-right: 0 ; margin-top: 0px ; margin-bottom: 0px ; text-indent: 0 ; direction: ltr&quot;&gt;&lt;br&gt;&lt;/p&gt;" style="verticalAlign=middle;align=center;vsdxID=66;fillColor=#FFFFFF;gradientColor=none;shape=stencil(vVHLDsIgEPwajiQI6RfU+h8bu22JCGRB2/69kG1iazx58DazM/vIjjBtmiCi0CplCjecbZ8nYc5Ca+snJJsLEqYTph0C4Ujh4XvmEaqzont41gkL96naodXKrGF6YSfQtUi0OXXDVlqPfJNP6usotUhYbJIUMmQb/GGrAxpRljVycDBuc1hKM2LclX8/7H9nFfB+82Cd45T2+mcspcSRmu4F);spacingTop=-3;spacingBottom=-1;spacingLeft=-3;spacingRight=-3;labelBackgroundColor=none;rounded=0;html=1;whiteSpace=wrap;" parent="1" vertex="1">
          <mxGeometry x="-410" y="990" width="42" height="22" as="geometry" />
        </mxCell>
        <mxCell id="GgjrJMBKcp33Ribkp8hx-143" value="&lt;p style=&quot;margin-left: 0 ; margin-right: 0 ; margin-top: 0px ; margin-bottom: 0px ; text-indent: 0 ; direction: ltr&quot;&gt;&lt;/p&gt;&lt;p style=&quot;margin: 0px ; direction: ltr&quot;&gt;&lt;span style=&quot;font-family: &amp;#34;calibri&amp;#34; , sans-serif ; font-size: 14.6667px ; text-align: left&quot;&gt;α&lt;/span&gt;&lt;sub style=&quot;font-family: &amp;#34;calibri&amp;#34; , sans-serif ; text-align: left&quot;&gt;1&lt;/sub&gt;&lt;br&gt;&lt;/p&gt;&lt;font face=&quot;cambria math&quot;&gt;&lt;/font&gt;" style="verticalAlign=middle;align=center;vsdxID=66;fillColor=#FFFFFF;gradientColor=none;shape=stencil(vVHLDsIgEPwajiQI6RfU+h8bu22JCGRB2/69kG1iazx58DazM/vIjjBtmiCi0CplCjecbZ8nYc5Ca+snJJsLEqYTph0C4Ujh4XvmEaqzont41gkL96naodXKrGF6YSfQtUi0OXXDVlqPfJNP6usotUhYbJIUMmQb/GGrAxpRljVycDBuc1hKM2LclX8/7H9nFfB+82Cd45T2+mcspcSRmu4F);spacingTop=-3;spacingBottom=-1;spacingLeft=-3;spacingRight=-3;labelBackgroundColor=none;rounded=0;html=1;whiteSpace=wrap;" parent="1" vertex="1">
          <mxGeometry x="-360" y="1065" width="78" height="30" as="geometry" />
        </mxCell>
        <mxCell id="GgjrJMBKcp33Ribkp8hx-144" value="&lt;p style=&quot;margin-left: 0 ; margin-right: 0 ; margin-top: 0px ; margin-bottom: 0px ; text-indent: 0 ; direction: ltr&quot;&gt;&lt;font style=&quot;letter-spacing: 0px ; font-size: 15px ; font-family: &amp;#34;cambria math&amp;#34; ; direction: ltr ; line-height: 18px ; opacity: 1&quot;&gt;a&lt;/font&gt;&lt;font style=&quot;letter-spacing: 0px ; font-family: &amp;#34;cambria math&amp;#34; ; direction: ltr ; line-height: 12.5px ; opacity: 1 ; font-size: 10.4167px&quot;&gt;&lt;sub&gt;8&lt;/sub&gt;&lt;/font&gt;&lt;br&gt;&lt;/p&gt;" style="verticalAlign=middle;align=center;vsdxID=66;fillColor=#FFFFFF;gradientColor=none;shape=stencil(vVHLDsIgEPwajiQI6RfU+h8bu22JCGRB2/69kG1iazx58DazM/vIjjBtmiCi0CplCjecbZ8nYc5Ca+snJJsLEqYTph0C4Ujh4XvmEaqzont41gkL96naodXKrGF6YSfQtUi0OXXDVlqPfJNP6usotUhYbJIUMmQb/GGrAxpRljVycDBuc1hKM2LclX8/7H9nFfB+82Cd45T2+mcspcSRmu4F);spacingTop=-3;spacingBottom=-1;spacingLeft=-3;spacingRight=-3;labelBackgroundColor=none;rounded=0;html=1;whiteSpace=wrap;" parent="1" vertex="1">
          <mxGeometry x="-235" y="1064" width="72" height="32" as="geometry" />
        </mxCell>
        <mxCell id="GgjrJMBKcp33Ribkp8hx-148" value="z&lt;sub&gt;1&lt;/sub&gt;" style="text;html=1;align=center;verticalAlign=middle;resizable=0;points=[];autosize=1;strokeColor=none;fillColor=none;fontSize=12;" parent="1" vertex="1">
          <mxGeometry x="-423" y="950" width="30" height="20" as="geometry" />
        </mxCell>
        <mxCell id="GgjrJMBKcp33Ribkp8hx-149" value="&lt;span style=&quot;font-size: 11.0pt ; line-height: 107% ; font-family: &amp;#34;calibri&amp;#34; , sans-serif&quot;&gt;α&lt;sub&gt;1&lt;/sub&gt;&lt;/span&gt;" style="text;whiteSpace=wrap;html=1;" parent="1" vertex="1">
          <mxGeometry x="-395" y="986" width="30" height="30" as="geometry" />
        </mxCell>
        <mxCell id="GgjrJMBKcp33Ribkp8hx-150" style="vsdxID=85;fillColor=#fff2cc;gradientColor=none;shape=stencil(nZBLDoAgDERP0z3SIyjew0SURgSD+Lu9kMZoXLhwN9O+tukAlrNpJg1SzDH4QW/URgNYgZTkjA4UkwJUgGXng+6DX1zLfmoymdXo17xh5zmRJ6Q42BWCfc2oJfdAr+Yv+AP9Cb7OJ3H/2JG1HNGz/84klThPVCc=);strokeColor=#000000;labelBackgroundColor=none;rounded=0;html=1;whiteSpace=wrap;" parent="1" vertex="1">
          <mxGeometry x="-362" y="739" width="65" height="40" as="geometry" />
        </mxCell>
        <mxCell id="GgjrJMBKcp33Ribkp8hx-151" style="vsdxID=102;edgeStyle=none;startArrow=none;endArrow=classic;startSize=5;endSize=5;strokeColor=#923931;spacingTop=0;spacingBottom=0;spacingLeft=0;spacingRight=0;verticalAlign=middle;html=1;labelBackgroundColor=#ffffff;rounded=0;" parent="1" edge="1">
          <mxGeometry relative="1" as="geometry">
            <Array as="points" />
            <mxPoint x="-330" y="779" as="sourcePoint" />
            <mxPoint x="-330" y="807" as="targetPoint" />
          </mxGeometry>
        </mxCell>
        <mxCell id="GgjrJMBKcp33Ribkp8hx-152" value="&lt;span style=&quot;font-family: &amp;#34;calibri&amp;#34; , sans-serif ; font-size: 14.6667px ; text-align: left&quot;&gt;π&lt;/span&gt;&lt;sub style=&quot;font-family: &amp;#34;calibri&amp;#34; , sans-serif ; text-align: left&quot;&gt;2&lt;/sub&gt;&lt;sub style=&quot;font-family: &amp;#34;cambria math&amp;#34; ; letter-spacing: 0px&quot;&gt;*&lt;/sub&gt;&lt;span style=&quot;font-family: &amp;#34;cambria math&amp;#34; ; font-size: 15px ; letter-spacing: 0px&quot;&gt;a&lt;/span&gt;&lt;sub style=&quot;font-family: &amp;#34;cambria math&amp;#34; ; letter-spacing: 0px&quot;&gt;5&lt;/sub&gt;&lt;sub style=&quot;font-family: &amp;#34;cambria math&amp;#34;&quot;&gt;&lt;br&gt;&lt;/sub&gt;" style="verticalAlign=middle;align=center;vsdxID=66;fillColor=#FFFFFF;gradientColor=none;shape=stencil(vVHLDsIgEPwajiQI6RfU+h8bu22JCGRB2/69kG1iazx58DazM/vIjjBtmiCi0CplCjecbZ8nYc5Ca+snJJsLEqYTph0C4Ujh4XvmEaqzont41gkL96naodXKrGF6YSfQtUi0OXXDVlqPfJNP6usotUhYbJIUMmQb/GGrAxpRljVycDBuc1hKM2LclX8/7H9nFfB+82Cd45T2+mcspcSRmu4F);spacingTop=-3;spacingBottom=-1;spacingLeft=-3;spacingRight=-3;labelBackgroundColor=none;rounded=0;html=1;whiteSpace=wrap;" parent="1" vertex="1">
          <mxGeometry x="-355" y="747" width="50" height="28" as="geometry" />
        </mxCell>
        <mxCell id="GgjrJMBKcp33Ribkp8hx-153" value="&lt;p style=&quot;margin-left: 0 ; margin-right: 0 ; margin-top: 0px ; margin-bottom: 0px ; text-indent: 0 ; direction: ltr&quot;&gt;&lt;font style=&quot;font-size: 15px ; font-family: &amp;#34;cambria math&amp;#34; ; color: #000000 ; direction: ltr ; letter-spacing: 0px ; line-height: 120% ; opacity: 1&quot;&gt;a&lt;sub&gt;5&lt;/sub&gt;&lt;/font&gt;&lt;/p&gt;" style="verticalAlign=middle;align=center;vsdxID=66;fillColor=#FFFFFF;gradientColor=none;shape=stencil(vVHLDsIgEPwajiQI6RfU+h8bu22JCGRB2/69kG1iazx58DazM/vIjjBtmiCi0CplCjecbZ8nYc5Ca+snJJsLEqYTph0C4Ujh4XvmEaqzont41gkL96naodXKrGF6YSfQtUi0OXXDVlqPfJNP6usotUhYbJIUMmQb/GGrAxpRljVycDBuc1hKM2LclX8/7H9nFfB+82Cd45T2+mcspcSRmu4F);spacingTop=-3;spacingBottom=-1;spacingLeft=-3;spacingRight=-3;labelBackgroundColor=none;rounded=0;html=1;whiteSpace=wrap;" parent="1" vertex="1">
          <mxGeometry x="-342" y="698" width="22" height="22" as="geometry" />
        </mxCell>
        <mxCell id="GgjrJMBKcp33Ribkp8hx-154" style="vsdxID=102;edgeStyle=none;startArrow=none;endArrow=classic;startSize=5;endSize=5;strokeColor=#923931;spacingTop=0;spacingBottom=0;spacingLeft=0;spacingRight=0;verticalAlign=middle;html=1;labelBackgroundColor=#ffffff;rounded=0;" parent="1" edge="1">
          <mxGeometry relative="1" as="geometry">
            <Array as="points" />
            <mxPoint x="-331" y="719" as="sourcePoint" />
            <mxPoint x="-331" y="747" as="targetPoint" />
          </mxGeometry>
        </mxCell>
        <mxCell id="GgjrJMBKcp33Ribkp8hx-155" style="vsdxID=85;fillColor=#fff2cc;gradientColor=none;shape=stencil(nZBLDoAgDERP0z3SIyjew0SURgSD+Lu9kMZoXLhwN9O+tukAlrNpJg1SzDH4QW/URgNYgZTkjA4UkwJUgGXng+6DX1zLfmoymdXo17xh5zmRJ6Q42BWCfc2oJfdAr+Yv+AP9Cb7OJ3H/2JG1HNGz/84klThPVCc=);strokeColor=#000000;labelBackgroundColor=none;rounded=0;html=1;whiteSpace=wrap;" parent="1" vertex="1">
          <mxGeometry x="-284" y="739" width="65" height="40" as="geometry" />
        </mxCell>
        <mxCell id="GgjrJMBKcp33Ribkp8hx-156" style="vsdxID=102;edgeStyle=none;startArrow=none;endArrow=classic;startSize=5;endSize=5;strokeColor=#923931;spacingTop=0;spacingBottom=0;spacingLeft=0;spacingRight=0;verticalAlign=middle;html=1;labelBackgroundColor=#ffffff;rounded=0;" parent="1" edge="1">
          <mxGeometry relative="1" as="geometry">
            <Array as="points" />
            <mxPoint x="-252" y="779" as="sourcePoint" />
            <mxPoint x="-252" y="807" as="targetPoint" />
          </mxGeometry>
        </mxCell>
        <mxCell id="GgjrJMBKcp33Ribkp8hx-157" value="&lt;span style=&quot;font-family: &amp;#34;calibri&amp;#34; , sans-serif ; font-size: 14.6667px ; text-align: left&quot;&gt;τ&lt;/span&gt;&lt;sub style=&quot;font-family: &amp;#34;calibri&amp;#34; , sans-serif ; text-align: left&quot;&gt;2&lt;/sub&gt;&lt;sub style=&quot;font-family: &amp;#34;cambria math&amp;#34; ; letter-spacing: 0px&quot;&gt;*&lt;/sub&gt;&lt;span style=&quot;font-family: &amp;#34;cambria math&amp;#34; ; font-size: 15px ; letter-spacing: 0px&quot;&gt;a&lt;/span&gt;&lt;sub style=&quot;font-family: &amp;#34;cambria math&amp;#34; ; letter-spacing: 0px&quot;&gt;6&lt;/sub&gt;&lt;sub style=&quot;font-family: &amp;#34;cambria math&amp;#34;&quot;&gt;&lt;br&gt;&lt;/sub&gt;" style="verticalAlign=middle;align=center;vsdxID=66;fillColor=#FFFFFF;gradientColor=none;shape=stencil(vVHLDsIgEPwajiQI6RfU+h8bu22JCGRB2/69kG1iazx58DazM/vIjjBtmiCi0CplCjecbZ8nYc5Ca+snJJsLEqYTph0C4Ujh4XvmEaqzont41gkL96naodXKrGF6YSfQtUi0OXXDVlqPfJNP6usotUhYbJIUMmQb/GGrAxpRljVycDBuc1hKM2LclX8/7H9nFfB+82Cd45T2+mcspcSRmu4F);spacingTop=-3;spacingBottom=-1;spacingLeft=-3;spacingRight=-3;labelBackgroundColor=none;rounded=0;html=1;whiteSpace=wrap;" parent="1" vertex="1">
          <mxGeometry x="-277" y="747" width="50" height="28" as="geometry" />
        </mxCell>
        <mxCell id="GgjrJMBKcp33Ribkp8hx-158" value="&lt;p style=&quot;margin-left: 0 ; margin-right: 0 ; margin-top: 0px ; margin-bottom: 0px ; text-indent: 0 ; direction: ltr&quot;&gt;&lt;font style=&quot;font-size: 15px ; font-family: &amp;#34;cambria math&amp;#34; ; color: #000000 ; direction: ltr ; letter-spacing: 0px ; line-height: 120% ; opacity: 1&quot;&gt;a&lt;sub&gt;6&lt;/sub&gt;&lt;/font&gt;&lt;/p&gt;" style="verticalAlign=middle;align=center;vsdxID=66;fillColor=#FFFFFF;gradientColor=none;shape=stencil(vVHLDsIgEPwajiQI6RfU+h8bu22JCGRB2/69kG1iazx58DazM/vIjjBtmiCi0CplCjecbZ8nYc5Ca+snJJsLEqYTph0C4Ujh4XvmEaqzont41gkL96naodXKrGF6YSfQtUi0OXXDVlqPfJNP6usotUhYbJIUMmQb/GGrAxpRljVycDBuc1hKM2LclX8/7H9nFfB+82Cd45T2+mcspcSRmu4F);spacingTop=-3;spacingBottom=-1;spacingLeft=-3;spacingRight=-3;labelBackgroundColor=none;rounded=0;html=1;whiteSpace=wrap;" parent="1" vertex="1">
          <mxGeometry x="-264" y="698" width="22" height="22" as="geometry" />
        </mxCell>
        <mxCell id="GgjrJMBKcp33Ribkp8hx-159" style="vsdxID=102;edgeStyle=none;startArrow=none;endArrow=classic;startSize=5;endSize=5;strokeColor=#923931;spacingTop=0;spacingBottom=0;spacingLeft=0;spacingRight=0;verticalAlign=middle;html=1;labelBackgroundColor=#ffffff;rounded=0;" parent="1" edge="1">
          <mxGeometry relative="1" as="geometry">
            <Array as="points" />
            <mxPoint x="-253" y="719" as="sourcePoint" />
            <mxPoint x="-253" y="747" as="targetPoint" />
          </mxGeometry>
        </mxCell>
        <mxCell id="GgjrJMBKcp33Ribkp8hx-160" style="vsdxID=85;fillColor=#fff2cc;gradientColor=none;shape=stencil(nZBLDoAgDERP0z3SIyjew0SURgSD+Lu9kMZoXLhwN9O+tukAlrNpJg1SzDH4QW/URgNYgZTkjA4UkwJUgGXng+6DX1zLfmoymdXo17xh5zmRJ6Q42BWCfc2oJfdAr+Yv+AP9Cb7OJ3H/2JG1HNGz/84klThPVCc=);strokeColor=#000000;labelBackgroundColor=none;rounded=0;html=1;whiteSpace=wrap;" parent="1" vertex="1">
          <mxGeometry x="-210" y="739" width="65" height="40" as="geometry" />
        </mxCell>
        <mxCell id="GgjrJMBKcp33Ribkp8hx-161" style="vsdxID=102;edgeStyle=none;startArrow=none;endArrow=classic;startSize=5;endSize=5;strokeColor=#923931;spacingTop=0;spacingBottom=0;spacingLeft=0;spacingRight=0;verticalAlign=middle;html=1;labelBackgroundColor=#ffffff;rounded=0;" parent="1" edge="1">
          <mxGeometry relative="1" as="geometry">
            <Array as="points" />
            <mxPoint x="-178" y="779" as="sourcePoint" />
            <mxPoint x="-178" y="807" as="targetPoint" />
          </mxGeometry>
        </mxCell>
        <mxCell id="GgjrJMBKcp33Ribkp8hx-162" value="&lt;span style=&quot;text-align: left&quot;&gt;&amp;nbsp; δ&lt;/span&gt;&lt;sub style=&quot;text-align: left&quot;&gt;2&lt;/sub&gt;&lt;sub style=&quot;font-family: &amp;#34;cambria math&amp;#34; ; letter-spacing: 0px&quot;&gt;*&lt;/sub&gt;&lt;span style=&quot;font-family: &amp;#34;cambria math&amp;#34; ; font-size: 15px ; letter-spacing: 0px&quot;&gt;a&lt;/span&gt;&lt;sub style=&quot;font-family: &amp;#34;cambria math&amp;#34; ; letter-spacing: 0px&quot;&gt;7&lt;/sub&gt;&lt;sub style=&quot;font-family: &amp;#34;cambria math&amp;#34;&quot;&gt;&lt;br&gt;&lt;/sub&gt;" style="verticalAlign=middle;align=center;vsdxID=66;fillColor=#FFFFFF;gradientColor=none;shape=stencil(vVHLDsIgEPwajiQI6RfU+h8bu22JCGRB2/69kG1iazx58DazM/vIjjBtmiCi0CplCjecbZ8nYc5Ca+snJJsLEqYTph0C4Ujh4XvmEaqzont41gkL96naodXKrGF6YSfQtUi0OXXDVlqPfJNP6usotUhYbJIUMmQb/GGrAxpRljVycDBuc1hKM2LclX8/7H9nFfB+82Cd45T2+mcspcSRmu4F);spacingTop=-3;spacingBottom=-1;spacingLeft=-3;spacingRight=-3;labelBackgroundColor=none;rounded=0;html=1;whiteSpace=wrap;" parent="1" vertex="1">
          <mxGeometry x="-203" y="747" width="50" height="28" as="geometry" />
        </mxCell>
        <mxCell id="GgjrJMBKcp33Ribkp8hx-163" value="&lt;p style=&quot;margin-left: 0 ; margin-right: 0 ; margin-top: 0px ; margin-bottom: 0px ; text-indent: 0 ; direction: ltr&quot;&gt;&lt;font style=&quot;font-size: 15px ; font-family: &amp;#34;cambria math&amp;#34; ; color: #000000 ; direction: ltr ; letter-spacing: 0px ; line-height: 120% ; opacity: 1&quot;&gt;a&lt;sub&gt;7&lt;/sub&gt;&lt;/font&gt;&lt;/p&gt;" style="verticalAlign=middle;align=center;vsdxID=66;fillColor=#FFFFFF;gradientColor=none;shape=stencil(vVHLDsIgEPwajiQI6RfU+h8bu22JCGRB2/69kG1iazx58DazM/vIjjBtmiCi0CplCjecbZ8nYc5Ca+snJJsLEqYTph0C4Ujh4XvmEaqzont41gkL96naodXKrGF6YSfQtUi0OXXDVlqPfJNP6usotUhYbJIUMmQb/GGrAxpRljVycDBuc1hKM2LclX8/7H9nFfB+82Cd45T2+mcspcSRmu4F);spacingTop=-3;spacingBottom=-1;spacingLeft=-3;spacingRight=-3;labelBackgroundColor=none;rounded=0;html=1;whiteSpace=wrap;" parent="1" vertex="1">
          <mxGeometry x="-190" y="698" width="22" height="22" as="geometry" />
        </mxCell>
        <mxCell id="GgjrJMBKcp33Ribkp8hx-164" style="vsdxID=102;edgeStyle=none;startArrow=none;endArrow=classic;startSize=5;endSize=5;strokeColor=#923931;spacingTop=0;spacingBottom=0;spacingLeft=0;spacingRight=0;verticalAlign=middle;html=1;labelBackgroundColor=#ffffff;rounded=0;" parent="1" edge="1">
          <mxGeometry relative="1" as="geometry">
            <Array as="points" />
            <mxPoint x="-179" y="719" as="sourcePoint" />
            <mxPoint x="-179" y="747" as="targetPoint" />
          </mxGeometry>
        </mxCell>
        <mxCell id="GgjrJMBKcp33Ribkp8hx-165" value="&lt;span style=&quot;text-align: left&quot;&gt;β&lt;sub&gt;1&lt;/sub&gt;&lt;/span&gt;" style="text;html=1;align=center;verticalAlign=middle;resizable=0;points=[];autosize=1;strokeColor=none;fillColor=none;" parent="1" vertex="1">
          <mxGeometry x="-664" y="720" width="30" height="20" as="geometry" />
        </mxCell>
        <mxCell id="GgjrJMBKcp33Ribkp8hx-166" value="&lt;span style=&quot;text-align: left&quot;&gt;γ&lt;sub&gt;1&lt;/sub&gt;&lt;/span&gt;" style="text;html=1;align=center;verticalAlign=middle;resizable=0;points=[];autosize=1;strokeColor=none;fillColor=none;" parent="1" vertex="1">
          <mxGeometry x="-594" y="720" width="30" height="20" as="geometry" />
        </mxCell>
        <mxCell id="GgjrJMBKcp33Ribkp8hx-167" value="&lt;span style=&quot;text-align: left&quot;&gt;λ&lt;sub&gt;1&lt;/sub&gt;&lt;/span&gt;" style="text;html=1;align=center;verticalAlign=middle;resizable=0;points=[];autosize=1;strokeColor=none;fillColor=none;" parent="1" vertex="1">
          <mxGeometry x="-514" y="720" width="30" height="20" as="geometry" />
        </mxCell>
        <mxCell id="GgjrJMBKcp33Ribkp8hx-168" value="&lt;span style=&quot;text-align: left&quot;&gt;σ&lt;sub&gt;1&lt;/sub&gt;&lt;/span&gt;" style="text;html=1;align=center;verticalAlign=middle;resizable=0;points=[];autosize=1;strokeColor=none;fillColor=none;" parent="1" vertex="1">
          <mxGeometry x="-434" y="720" width="30" height="20" as="geometry" />
        </mxCell>
        <mxCell id="GgjrJMBKcp33Ribkp8hx-169" value="&lt;span style=&quot;font-family: &amp;#34;calibri&amp;#34; , sans-serif ; font-size: 14.6667px ; text-align: left&quot;&gt;π&lt;sub&gt;1&lt;/sub&gt;&lt;/span&gt;" style="text;html=1;align=center;verticalAlign=middle;resizable=0;points=[];autosize=1;strokeColor=none;fillColor=none;" parent="1" vertex="1">
          <mxGeometry x="-364" y="720" width="30" height="20" as="geometry" />
        </mxCell>
        <mxCell id="GgjrJMBKcp33Ribkp8hx-170" value="&lt;span style=&quot;font-family: &amp;#34;calibri&amp;#34; , sans-serif ; font-size: 14.6667px ; text-align: left&quot;&gt;τ&lt;sub&gt;1&lt;/sub&gt;&lt;/span&gt;" style="text;html=1;align=center;verticalAlign=middle;resizable=0;points=[];autosize=1;strokeColor=none;fillColor=none;" parent="1" vertex="1">
          <mxGeometry x="-284" y="720" width="30" height="20" as="geometry" />
        </mxCell>
        <mxCell id="GgjrJMBKcp33Ribkp8hx-171" value="&lt;span style=&quot;text-align: left&quot;&gt;&amp;nbsp; δ&lt;sub&gt;1&lt;/sub&gt;&lt;/span&gt;" style="text;html=1;align=center;verticalAlign=middle;resizable=0;points=[];autosize=1;strokeColor=none;fillColor=none;" parent="1" vertex="1">
          <mxGeometry x="-214" y="720" width="30" height="20" as="geometry" />
        </mxCell>
        <mxCell id="GgjrJMBKcp33Ribkp8hx-172" style="vsdxID=102;edgeStyle=none;startArrow=none;endArrow=classic;startSize=5;endSize=5;strokeColor=#923931;spacingTop=0;spacingBottom=0;spacingLeft=0;spacingRight=0;verticalAlign=middle;html=1;labelBackgroundColor=#ffffff;rounded=0;" parent="1" edge="1">
          <mxGeometry relative="1" as="geometry">
            <Array as="points" />
            <mxPoint x="-330" y="856" as="sourcePoint" />
            <mxPoint x="-330" y="884" as="targetPoint" />
          </mxGeometry>
        </mxCell>
        <mxCell id="GgjrJMBKcp33Ribkp8hx-173" style="vsdxID=102;edgeStyle=none;startArrow=none;endArrow=classic;startSize=5;endSize=5;strokeColor=#923931;spacingTop=0;spacingBottom=0;spacingLeft=0;spacingRight=0;verticalAlign=middle;html=1;labelBackgroundColor=#ffffff;rounded=0;" parent="1" edge="1">
          <mxGeometry relative="1" as="geometry">
            <Array as="points" />
            <mxPoint x="-251" y="859" as="sourcePoint" />
            <mxPoint x="-251" y="887" as="targetPoint" />
          </mxGeometry>
        </mxCell>
        <mxCell id="GgjrJMBKcp33Ribkp8hx-174" style="vsdxID=102;edgeStyle=none;startArrow=none;endArrow=classic;startSize=5;endSize=5;strokeColor=#923931;spacingTop=0;spacingBottom=0;spacingLeft=0;spacingRight=0;verticalAlign=middle;html=1;labelBackgroundColor=#ffffff;rounded=0;" parent="1" edge="1">
          <mxGeometry relative="1" as="geometry">
            <Array as="points" />
            <mxPoint x="-176" y="859" as="sourcePoint" />
            <mxPoint x="-176" y="887" as="targetPoint" />
          </mxGeometry>
        </mxCell>
        <mxCell id="GgjrJMBKcp33Ribkp8hx-175" value="-1" style="text;html=1;align=center;verticalAlign=middle;resizable=0;points=[];autosize=1;strokeColor=none;fillColor=none;" parent="1" vertex="1">
          <mxGeometry x="-362" y="860" width="30" height="20" as="geometry" />
        </mxCell>
        <mxCell id="GgjrJMBKcp33Ribkp8hx-176" value="1" style="text;html=1;align=center;verticalAlign=middle;resizable=0;points=[];autosize=1;strokeColor=none;fillColor=none;" parent="1" vertex="1">
          <mxGeometry x="-277" y="860" width="20" height="20" as="geometry" />
        </mxCell>
        <mxCell id="GgjrJMBKcp33Ribkp8hx-177" value="1" style="text;html=1;align=center;verticalAlign=middle;resizable=0;points=[];autosize=1;strokeColor=none;fillColor=none;" parent="1" vertex="1">
          <mxGeometry x="-199" y="860" width="20" height="20" as="geometry" />
        </mxCell>
        <mxCell id="GgjrJMBKcp33Ribkp8hx-178" style="vsdxID=93;fillColor=#f2dcda;gradientColor=none;shape=stencil(nZBLDoAgDERP0z3SIyjew0SURgSD+Lu9kMZoXLhwN9O+tukAlrNpJg1SzDH4QW/URgNYgZTkjA4UkwJUgGXng+6DX1zLfmoymdXo17xh5zmRJ6Q42BWCfc2oJfdAr+Yv+AP9Cb7OJ3H/2JG1HNGz/84klThPVCc=);strokeColor=#000000;labelBackgroundColor=none;rounded=0;html=1;whiteSpace=wrap;" parent="1" vertex="1">
          <mxGeometry x="-275" y="1138" width="665" height="47" as="geometry" />
        </mxCell>
        <mxCell id="GgjrJMBKcp33Ribkp8hx-180" style="vsdxID=197;fillColor=#EBF1DF;gradientColor=none;shape=stencil(nZBLDoAgDERP0z3SIyjew0SURgSD+Lu9kMZoXLhwN9O+tukAlrNpJg1SzDH4QW/URgNYgZTkjA4UkwJUgGXng+6DX1zLfmoymdXo17xh5zmRJ6Q42BWCfc2oJfdAr+Yv+AP9Cb7OJ3H/2JG1HNGz/84klThPVCc=);strokeColor=#000000;labelBackgroundColor=none;rounded=0;html=1;whiteSpace=wrap;" parent="1" vertex="1">
          <mxGeometry x="38" y="1223" width="59" height="38" as="geometry" />
        </mxCell>
        <mxCell id="GgjrJMBKcp33Ribkp8hx-181" style="vsdxID=247;edgeStyle=none;startArrow=none;endArrow=classic;startSize=5;endSize=5;strokeColor=#923931;spacingTop=0;spacingBottom=0;spacingLeft=0;spacingRight=0;verticalAlign=middle;html=1;labelBackgroundColor=#ffffff;rounded=0;" parent="1" edge="1">
          <mxGeometry relative="1" as="geometry">
            <Array as="points" />
            <mxPoint x="47" y="1184" as="sourcePoint" />
            <mxPoint x="47" y="1220" as="targetPoint" />
          </mxGeometry>
        </mxCell>
        <mxCell id="GgjrJMBKcp33Ribkp8hx-182" style="vsdxID=247;edgeStyle=none;startArrow=none;endArrow=classic;startSize=5;endSize=5;strokeColor=#923931;spacingTop=0;spacingBottom=0;spacingLeft=0;spacingRight=0;verticalAlign=middle;html=1;labelBackgroundColor=#ffffff;rounded=0;" parent="1" edge="1">
          <mxGeometry relative="1" as="geometry">
            <Array as="points" />
            <mxPoint x="90" y="1185" as="sourcePoint" />
            <mxPoint x="90" y="1221" as="targetPoint" />
          </mxGeometry>
        </mxCell>
        <mxCell id="GgjrJMBKcp33Ribkp8hx-183" value="1" style="text;html=1;align=center;verticalAlign=middle;resizable=0;points=[];autosize=1;strokeColor=none;fillColor=none;" parent="1" vertex="1">
          <mxGeometry x="20" y="1190" width="20" height="20" as="geometry" />
        </mxCell>
        <mxCell id="GgjrJMBKcp33Ribkp8hx-184" value="1" style="text;html=1;align=center;verticalAlign=middle;resizable=0;points=[];autosize=1;strokeColor=none;fillColor=none;" parent="1" vertex="1">
          <mxGeometry x="70" y="1190" width="20" height="20" as="geometry" />
        </mxCell>
        <mxCell id="GgjrJMBKcp33Ribkp8hx-188" value="&lt;p style=&quot;margin-left: 0 ; margin-right: 0 ; margin-top: 0px ; margin-bottom: 0px ; text-indent: 0 ; direction: ltr&quot;&gt;&lt;/p&gt;&lt;p style=&quot;text-align: left ; margin: 0px ; direction: ltr&quot;&gt;&lt;font face=&quot;calibri, sans-serif&quot;&gt;&lt;span style=&quot;font-size: 14.6667px&quot;&gt;Cost&lt;sub&gt;P&lt;/sub&gt;&lt;/span&gt;&lt;/font&gt;&lt;/p&gt;&lt;font face=&quot;cambria math&quot;&gt;&lt;/font&gt;" style="verticalAlign=middle;align=center;vsdxID=66;fillColor=#FFFFFF;gradientColor=none;shape=stencil(vVHLDsIgEPwajiQI6RfU+h8bu22JCGRB2/69kG1iazx58DazM/vIjjBtmiCi0CplCjecbZ8nYc5Ca+snJJsLEqYTph0C4Ujh4XvmEaqzont41gkL96naodXKrGF6YSfQtUi0OXXDVlqPfJNP6usotUhYbJIUMmQb/GGrAxpRljVycDBuc1hKM2LclX8/7H9nFfB+82Cd45T2+mcspcSRmu4F);spacingTop=-3;spacingBottom=-1;spacingLeft=-3;spacingRight=-3;labelBackgroundColor=none;rounded=0;html=1;whiteSpace=wrap;" parent="1" vertex="1">
          <mxGeometry x="43" y="1227" width="47" height="30" as="geometry" />
        </mxCell>
        <mxCell id="GgjrJMBKcp33Ribkp8hx-189" style="vsdxID=247;edgeStyle=none;startArrow=none;endArrow=classic;startSize=5;endSize=5;strokeColor=#923931;spacingTop=0;spacingBottom=0;spacingLeft=0;spacingRight=0;verticalAlign=middle;html=1;labelBackgroundColor=#ffffff;rounded=0;" parent="1" edge="1">
          <mxGeometry relative="1" as="geometry">
            <Array as="points" />
            <mxPoint x="67" y="1259" as="sourcePoint" />
            <mxPoint x="67" y="1295" as="targetPoint" />
          </mxGeometry>
        </mxCell>
        <mxCell id="GgjrJMBKcp33Ribkp8hx-192" value="&lt;font style=&quot;font-family: calibri; color: rgb(0, 0, 0); direction: ltr; letter-spacing: 0px; line-height: 120%; opacity: 1;&quot;&gt;&lt;font style=&quot;font-size: 23px;&quot;&gt;Couche de sortie&lt;/font&gt;&lt;br&gt;&lt;/font&gt;" style="verticalAlign=middle;align=center;vsdxID=196;fillColor=#EBF1DF;shape=stencil(nZBLDoAgDERP0z3SIyjew0SURgSD+Lu9kMZoXLhwN9O+tukAlrNpJg1SzDH4QW/URgNYgZTkjA4UkwJUgGXng+6DX1zLfmoymdXo17xh5zmRJ6Q42BWCfc2oJfdAr+Yv+AP9Cb7OJ3H/2JG1HNGz/84klThPVCc=);strokeColor=none;labelBackgroundColor=none;rounded=0;html=1;whiteSpace=wrap;fontColor=#333333;" parent="1" vertex="1">
          <mxGeometry x="416" y="1212" width="204" height="34" as="geometry" />
        </mxCell>
        <mxCell id="GqAb9UTRgMA6NojDS4XD-1" value="&lt;p style=&quot;margin-left: 0 ; margin-right: 0 ; margin-top: 0px ; margin-bottom: 0px ; text-indent: 0 ; direction: ltr&quot;&gt;&lt;font style=&quot;font-family: calibri; color: rgb(0, 0, 0); direction: ltr; letter-spacing: 0px; line-height: 120%; opacity: 1; font-size: 23px;&quot;&gt;Couches intermédiaires&lt;/font&gt;&lt;font style=&quot;font-size: 14px ; font-family: &amp;quot;themed&amp;quot; ; color: #000000 ; direction: ltr ; letter-spacing: 0px ; line-height: 120% ; opacity: 1&quot;&gt;&lt;br&gt;&lt;/font&gt;&lt;/p&gt;" style="verticalAlign=middle;align=center;vsdxID=200;fillColor=#f5f5f5;shape=stencil(nZBLDoAgDERP0z3SIyjew0SURgSD+Lu9kMZoXLhwN9O+tukAlrNpJg1SzDH4QW/URgNYgZTkjA4UkwJUgGXng+6DX1zLfmoymdXo17xh5zmRJ6Q42BWCfc2oJfdAr+Yv+AP9Cb7OJ3H/2JG1HNGz/84klThPVCc=);strokeColor=#666666;labelBackgroundColor=none;rounded=0;html=1;whiteSpace=wrap;fontColor=#333333;" vertex="1" parent="1">
          <mxGeometry x="428" y="971.5" width="204" height="55" as="geometry" />
        </mxCell>
        <mxCell id="GqAb9UTRgMA6NojDS4XD-3" value="" style="shape=curlyBracket;whiteSpace=wrap;html=1;rounded=1;flipH=1;labelPosition=right;verticalLabelPosition=middle;align=left;verticalAlign=middle;" vertex="1" parent="1">
          <mxGeometry x="408" y="808" width="20" height="382" as="geometry" />
        </mxCell>
      </root>
    </mxGraphModel>
  </diagram>
</mxfile>
